<?xml version="1.0" standalone="no"?>
<!DOCTYPE svg PUBLIC "-//W3C//DTD SVG 20010904//EN"
 "http://www.w3.org/TR/2001/REC-SVG-20010904/DTD/svg10.dtd">
<svg version="1.0" xmlns="http://www.w3.org/2000/svg"
 width="700.000000pt" height="700.000000pt" viewBox="0 0 700.000000 700.000000"
 preserveAspectRatio="xMidYMid meet">
<metadata>
Created by potrace 1.14, written by Peter Selinger 2001-2017
</metadata>
<g transform="translate(0.000000,700.000000) scale(0.100000,-0.100000)"
fill="#000000" stroke="none">
<path d="M3278 6996 c-1 -2 -39 -6 -83 -10 -44 -3 -100 -8 -125 -12 -1116
-143 -2087 -799 -2632 -1779 -48 -86 -148 -289 -148 -301 0 -2 -11 -27 -24
-56 -60 -133 -155 -432 -181 -569 -3 -13 -11 -58 -20 -99 -22 -115 -30 -160
-41 -255 -26 -230 -26 -667 1 -826 2 -13 6 -46 9 -74 9 -78 22 -152 51 -285
21 -96 91 -339 114 -395 5 -11 26 -65 46 -120 64 -168 249 -531 312 -610 4 -6
34 -49 65 -95 101 -151 251 -330 418 -498 344 -345 812 -641 1277 -806 76 -27
259 -84 289 -90 10 -2 57 -13 104 -25 109 -26 200 -43 299 -57 25 -3 57 -8 71
-10 163 -25 682 -25 842 1 13 2 46 7 73 10 71 10 87 13 115 18 14 3 43 8 65
12 22 4 76 16 120 27 44 10 87 21 96 23 221 50 593 201 823 334 49 28 91 51
93 51 10 0 268 180 353 247 152 119 324 280 450 422 36 41 70 79 76 85 6 6 48
61 94 121 150 197 277 405 383 628 26 53 47 99 47 102 0 2 11 28 24 57 57 127
151 421 182 573 17 81 54 301 59 350 4 33 9 71 11 85 9 46 11 524 4 605 -15
153 -21 210 -25 225 -2 8 -7 35 -10 60 -17 129 -80 384 -136 552 -349 1038
-1173 1862 -2209 2207 -174 58 -415 118 -550 136 -19 3 -46 7 -60 10 -13 2
-52 7 -86 11 -33 3 -74 8 -90 10 -32 5 -540 14 -546 10z m-445 -793 c-122
-346 -167 -471 -366 -1028 -118 -330 -227 -634 -242 -675 -14 -41 -29 -82 -32
-90 -4 -8 -7 -17 -7 -20 -1 -3 -9 -25 -18 -50 -21 -56 -252 -701 -284 -790
-49 -142 -123 -347 -134 -375 -6 -16 -13 -37 -15 -45 -2 -8 -18 -53 -35 -100
-18 -47 -111 -305 -207 -575 -96 -269 -193 -539 -215 -600 -22 -60 -42 -118
-45 -127 -3 -10 -8 -18 -12 -18 -16 1 -166 223 -249 368 -53 93 -136 268 -167
352 -9 25 -21 54 -25 65 -43 101 -119 377 -135 490 -1 11 -5 36 -9 55 -7 39
-11 70 -23 180 -15 146 -8 545 11 660 3 14 7 43 10 65 4 22 8 51 11 65 2 14 6
36 9 50 40 242 165 584 309 845 42 76 162 266 189 300 5 6 47 58 94 117 310
389 753 711 1224 889 115 43 360 117 392 118 14 1 10 -19 -29 -126z m1628 33
c206 -74 351 -142 529 -249 578 -346 1018 -884 1246 -1525 32 -89 79 -253 90
-312 3 -14 7 -33 10 -42 6 -20 9 -34 24 -128 6 -41 13 -86 16 -100 25 -150 26
-619 0 -755 -2 -11 -6 -41 -10 -66 -50 -347 -179 -706 -369 -1034 -51 -87 -96
-147 -97 -128 0 10 -143 416 -255 723 -13 36 -58 162 -100 280 -42 118 -99
276 -126 350 -54 152 -358 1005 -451 1265 -33 94 -64 179 -69 190 -5 11 -29
76 -53 145 -24 69 -101 285 -171 480 -181 505 -214 599 -232 650 -8 25 -35 99
-59 164 -24 66 -44 121 -44 123 0 9 35 0 121 -31z m-782 -832 c38 -109 95
-271 126 -359 31 -88 67 -191 80 -230 13 -38 47 -135 76 -215 28 -80 57 -163
64 -185 7 -22 37 -105 65 -185 28 -80 58 -165 66 -190 8 -25 19 -54 24 -65 4
-11 11 -29 13 -40 3 -11 26 -78 52 -150 26 -71 80 -224 120 -340 40 -115 98
-280 128 -366 l54 -156 -948 0 c-693 0 -949 3 -949 12 0 12 8 36 117 340 41
116 76 215 77 220 2 6 6 17 9 25 4 8 34 94 68 190 33 96 86 245 116 330 30 85
63 182 75 215 11 33 24 69 29 80 5 11 36 99 69 195 65 186 128 365 137 390 3
8 7 20 9 25 1 6 10 30 19 55 21 56 147 414 188 533 16 49 34 84 38 80 5 -5 40
-99 78 -209z m1136 -3265 c4 -5 27 -69 185 -519 37 -107 92 -262 120 -343 29
-81 51 -149 49 -150 -2 -1 -24 -16 -49 -33 -305 -209 -774 -399 -1105 -448
-22 -3 -51 -8 -65 -11 -109 -21 -249 -30 -465 -29 -192 0 -265 4 -365 19 -141
22 -183 29 -240 42 -36 8 -72 16 -81 18 -45 9 -258 76 -304 95 -11 4 -51 20
-88 34 -94 36 -247 111 -344 168 l-82 48 30 83 c17 45 37 101 44 123 7 23 24
72 38 110 14 38 71 200 127 359 153 438 151 434 175 437 33 5 2415 1 2420 -3z"/>
</g>
</svg>
