<svg width="396" height="65" viewBox="0 0 396 65" fill="none" xmlns="http://www.w3.org/2000/svg">
<path d="M50.127 27.79C50.9583 26.7007 52.0907 25.7833 53.524 25.038C54.9573 24.2927 56.577 23.92 58.383 23.92C60.447 23.92 62.3247 24.436 64.016 25.468C65.736 26.4713 67.0833 27.8903 68.058 29.725C69.0327 31.5597 69.52 33.6667 69.52 36.046C69.52 38.4253 69.0327 40.561 68.058 42.453C67.0833 44.3163 65.736 45.7783 64.016 46.839C62.3247 47.871 60.447 48.387 58.383 48.387C56.577 48.387 54.9717 48.0287 53.567 47.312C52.1623 46.5667 51.0157 45.6493 50.127 44.56V59.266H45.225V24.307H50.127V27.79ZM64.532 36.046C64.532 34.412 64.188 33.0073 63.5 31.832C62.8407 30.628 61.952 29.725 60.834 29.123C59.7447 28.4923 58.5693 28.177 57.308 28.177C56.0753 28.177 54.9 28.4923 53.782 29.123C52.6927 29.7537 51.804 30.671 51.116 31.875C50.4567 33.079 50.127 34.498 50.127 36.132C50.127 37.766 50.4567 39.1993 51.116 40.432C51.804 41.636 52.6927 42.5533 53.782 43.184C54.9 43.8147 56.0753 44.13 57.308 44.13C58.5693 44.13 59.7447 43.8147 60.834 43.184C61.952 42.5247 62.8407 41.5787 63.5 40.346C64.188 39.1133 64.532 37.68 64.532 36.046ZM106.69 16.18V48H101.788V16.18H106.69ZM118.028 16.18V48H113.126V16.18H118.028ZM163.839 23.92C165.702 23.92 167.365 24.307 168.827 25.081C170.318 25.855 171.479 27.0017 172.31 28.521C173.141 30.0403 173.557 31.875 173.557 34.025V48H168.698V34.756C168.698 32.6347 168.168 31.015 167.107 29.897C166.046 28.7503 164.599 28.177 162.764 28.177C160.929 28.177 159.467 28.7503 158.378 29.897C157.317 31.015 156.787 32.6347 156.787 34.756V48H151.885V24.307H156.787V27.016C157.59 26.0413 158.607 25.2817 159.84 24.737C161.101 24.1923 162.434 23.92 163.839 23.92ZM182.304 21.168C181.415 21.168 180.67 20.867 180.068 20.265C179.466 19.663 179.165 18.9177 179.165 18.029C179.165 17.1403 179.466 16.395 180.068 15.793C180.67 15.191 181.415 14.89 182.304 14.89C183.164 14.89 183.895 15.191 184.497 15.793C185.099 16.395 185.4 17.1403 185.4 18.029C185.4 18.9177 185.099 19.663 184.497 20.265C183.895 20.867 183.164 21.168 182.304 21.168ZM184.712 24.307V48H179.81V24.307H184.712ZM227.728 43.614L234.436 24.307H239.639L230.609 48H224.761L215.774 24.307H221.02L227.728 43.614ZM264.672 24.307L250.138 59.137H245.064L249.88 47.613L240.549 24.307H246.01L252.675 42.367L259.598 24.307H264.672ZM300.998 24.307V48H296.096V45.205C295.322 46.1797 294.305 46.9537 293.043 47.527C291.811 48.0717 290.492 48.344 289.087 48.344C287.224 48.344 285.547 47.957 284.056 47.183C282.594 46.409 281.433 45.2623 280.573 43.743C279.742 42.2237 279.326 40.389 279.326 38.239V24.307H284.185V37.508C284.185 39.6293 284.716 41.2633 285.776 42.41C286.837 43.528 288.285 44.087 290.119 44.087C291.954 44.087 293.402 43.528 294.462 42.41C295.552 41.2633 296.096 39.6293 296.096 37.508V24.307H300.998ZM294.72 17.943L285.217 22.63V19.018L294.72 13.772V17.943ZM312.368 16.18V48H307.466V16.18H312.368ZM358.48 23.92C360.286 23.92 361.891 24.307 363.296 25.081C364.729 25.855 365.847 27.0017 366.65 28.521C367.481 30.0403 367.897 31.875 367.897 34.025V48H363.038V34.756C363.038 32.6347 362.508 31.015 361.447 29.897C360.386 28.7503 358.939 28.177 357.104 28.177C355.269 28.177 353.807 28.7503 352.718 29.897C351.657 31.015 351.127 32.6347 351.127 34.756V48H346.225V16.18H351.127V27.059C351.958 26.0557 353.005 25.2817 354.266 24.737C355.556 24.1923 356.961 23.92 358.48 23.92ZM395.478 24.307L380.944 59.137H375.87L380.686 47.613L371.355 24.307H376.816L383.481 42.367L390.404 24.307H395.478Z" fill="black"/>
<path d="M84.6446 48.387C82.4086 48.387 80.3876 47.8853 78.5816 46.882C76.7756 45.85 75.3566 44.4167 74.3246 42.582C73.2926 40.7187 72.7766 38.5687 72.7766 36.132C72.7766 33.724 73.3069 31.5883 74.3676 29.725C75.4282 27.8617 76.8759 26.4283 78.7106 25.425C80.5452 24.4217 82.5949 23.92 84.8596 23.92C87.1242 23.92 89.1739 24.4217 91.0086 25.425C92.8432 26.4283 94.2909 27.8617 95.3516 29.725C96.4122 31.5883 96.9426 33.724 96.9426 36.132C96.9426 38.54 96.3979 40.6757 95.3086 42.539C94.2192 44.4023 92.7286 45.85 90.8366 46.882C88.9732 47.8853 86.9092 48.387 84.6446 48.387ZM84.6446 44.13C85.9059 44.13 87.0812 43.829 88.1706 43.227C89.2886 42.625 90.1916 41.722 90.8796 40.518C91.5676 39.314 91.9116 37.852 91.9116 36.132C91.9116 34.412 91.5819 32.9643 90.9226 31.789C90.2632 30.585 89.3889 29.682 88.2996 29.08C87.2102 28.478 86.0349 28.177 84.7736 28.177C83.5122 28.177 82.3369 28.478 81.2476 29.08C80.1869 29.682 79.3412 30.585 78.7106 31.789C78.0799 32.9643 77.7646 34.412 77.7646 36.132C77.7646 38.6833 78.4096 40.6613 79.6996 42.066C81.0182 43.442 82.6666 44.13 84.6446 44.13ZM134.741 48.387C132.505 48.387 130.484 47.8853 128.678 46.882C126.872 45.85 125.453 44.4167 124.421 42.582C123.389 40.7187 122.873 38.5687 122.873 36.132C122.873 33.724 123.404 31.5883 124.464 29.725C125.525 27.8617 126.973 26.4283 128.807 25.425C130.642 24.4217 132.692 23.92 134.956 23.92C137.221 23.92 139.271 24.4217 141.105 25.425C142.94 26.4283 144.388 27.8617 145.448 29.725C146.509 31.5883 147.039 33.724 147.039 36.132C147.039 38.54 146.495 40.6757 145.405 42.539C144.316 44.4023 142.825 45.85 140.933 46.882C139.07 47.8853 137.006 48.387 134.741 48.387ZM134.741 44.13C136.003 44.13 137.178 43.829 138.267 43.227C139.385 42.625 140.288 41.722 140.976 40.518C141.664 39.314 142.008 37.852 142.008 36.132C142.008 34.412 141.679 32.9643 141.019 31.789C140.36 30.585 139.486 29.682 138.396 29.08C137.307 28.478 136.132 28.177 134.87 28.177C133.609 28.177 132.434 28.478 131.344 29.08C130.284 29.682 129.438 30.585 128.807 31.789C128.177 32.9643 127.861 34.412 127.861 36.132C127.861 38.6833 128.506 40.6613 129.796 42.066C131.115 43.442 132.763 44.13 134.741 44.13ZM201.425 48.387C199.189 48.387 197.168 47.8853 195.362 46.882C193.556 45.85 192.137 44.4167 191.105 42.582C190.073 40.7187 189.557 38.5687 189.557 36.132C189.557 33.724 190.087 31.5883 191.148 29.725C192.209 27.8617 193.656 26.4283 195.491 25.425C197.326 24.4217 199.375 23.92 201.64 23.92C203.905 23.92 205.954 24.4217 207.789 25.425C209.624 26.4283 211.071 27.8617 212.132 29.725C213.193 31.5883 213.723 33.724 213.723 36.132C213.723 38.54 213.178 40.6757 212.089 42.539C211 44.4023 209.509 45.85 207.617 46.882C205.754 47.8853 203.69 48.387 201.425 48.387ZM201.425 44.13C202.686 44.13 203.862 43.829 204.951 43.227C206.069 42.625 206.972 41.722 207.66 40.518C208.348 39.314 208.692 37.852 208.692 36.132C208.692 34.412 208.362 32.9643 207.703 31.789C207.044 30.585 206.169 29.682 205.08 29.08C203.991 28.478 202.815 28.177 201.554 28.177C200.293 28.177 199.117 28.478 198.028 29.08C196.967 29.682 196.122 30.585 195.491 31.789C194.86 32.9643 194.545 34.412 194.545 36.132C194.545 38.6833 195.19 40.6613 196.48 42.066C197.799 43.442 199.447 44.13 201.425 44.13ZM329.081 48.387C326.845 48.387 324.824 47.8853 323.018 46.882C321.212 45.85 319.793 44.4167 318.761 42.582C317.729 40.7187 317.213 38.5687 317.213 36.132C317.213 33.724 317.743 31.5883 318.804 29.725C319.865 27.8617 321.312 26.4283 323.147 25.425C324.982 24.4217 327.031 23.92 329.296 23.92C331.561 23.92 333.61 24.4217 335.445 25.425C337.28 26.4283 338.727 27.8617 339.788 29.725C340.849 31.5883 341.379 33.724 341.379 36.132C341.379 38.54 340.834 40.6757 339.745 42.539C338.656 44.4023 337.165 45.85 335.273 46.882C333.41 47.8853 331.346 48.387 329.081 48.387ZM329.081 44.13C330.342 44.13 331.518 43.829 332.607 43.227C333.725 42.625 334.628 41.722 335.316 40.518C336.004 39.314 336.348 37.852 336.348 36.132C336.348 34.412 336.018 32.9643 335.359 31.789C334.7 30.585 333.825 29.682 332.736 29.08C331.647 28.478 330.471 28.177 329.21 28.177C327.949 28.177 326.773 28.478 325.684 29.08C324.623 29.682 323.778 30.585 323.147 31.789C322.516 32.9643 322.201 34.412 322.201 36.132C322.201 38.6833 322.846 40.6613 324.136 42.066C325.455 43.442 327.103 44.13 329.081 44.13Z" fill="#CC0000"/>
<path d="M28.7052 43.4504H14.4046L11.9475 50.4287L7.32007 47.0001L18.3361 16.2252H24.8229L35.8343 47.0001L31.1623 50.4287L28.7052 43.4504ZM27.1326 38.8801L21.5795 23.0069L15.9772 38.8801H27.1326Z" fill="black"/>
<circle cx="21" cy="35.5" r="18.7429" stroke="#CC0000" stroke-width="3.51429"/>
</svg>
