<svg width="384" height="65" viewBox="0 0 384 65" fill="none" xmlns="http://www.w3.org/2000/svg">
<path d="M21.242 41.894H8.729L6.579 48H1.462L12.169 18.072H17.845L28.552 48H23.392L21.242 41.894ZM19.866 37.895L15.007 24.006L10.105 37.895H19.866ZM38.1094 27.79C38.9408 26.7007 40.0731 25.7833 41.5064 25.038C42.9398 24.2927 44.5594 23.92 46.3654 23.92C48.4294 23.92 50.3071 24.436 51.9984 25.468C53.7184 26.4713 55.0658 27.8903 56.0404 29.725C57.0151 31.5597 57.5024 33.6667 57.5024 36.046C57.5024 38.4253 57.0151 40.561 56.0404 42.453C55.0658 44.3163 53.7184 45.7783 51.9984 46.839C50.3071 47.871 48.4294 48.387 46.3654 48.387C44.5594 48.387 42.9541 48.0287 41.5494 47.312C40.1448 46.5667 38.9981 45.6493 38.1094 44.56V59.266H33.2074V24.307H38.1094V27.79ZM52.5144 36.046C52.5144 34.412 52.1704 33.0073 51.4824 31.832C50.8231 30.628 49.9344 29.725 48.8164 29.123C47.7271 28.4923 46.5518 28.177 45.2904 28.177C44.0578 28.177 42.8824 28.4923 41.7644 29.123C40.6751 29.7537 39.7864 30.671 39.0984 31.875C38.4391 33.079 38.1094 34.498 38.1094 36.132C38.1094 37.766 38.4391 39.1993 39.0984 40.432C39.7864 41.636 40.6751 42.5533 41.7644 43.184C42.8824 43.8147 44.0578 44.13 45.2904 44.13C46.5518 44.13 47.7271 43.8147 48.8164 43.184C49.9344 42.5247 50.8231 41.5787 51.4824 40.346C52.1704 39.1133 52.5144 37.68 52.5144 36.046ZM94.6729 16.18V48H89.7709V16.18H94.6729ZM106.011 16.18V48H101.109V16.18H106.011ZM151.822 23.92C153.685 23.92 155.348 24.307 156.81 25.081C158.3 25.855 159.461 27.0017 160.293 28.521C161.124 30.0403 161.54 31.875 161.54 34.025V48H156.681V34.756C156.681 32.6347 156.15 31.015 155.09 29.897C154.029 28.7503 152.581 28.177 150.747 28.177C148.912 28.177 147.45 28.7503 146.361 29.897C145.3 31.015 144.77 32.6347 144.77 34.756V48H139.868V24.307H144.77V27.016C145.572 26.0413 146.59 25.2817 147.823 24.737C149.084 24.1923 150.417 23.92 151.822 23.92ZM170.286 21.168C169.398 21.168 168.652 20.867 168.05 20.265C167.448 19.663 167.147 18.9177 167.147 18.029C167.147 17.1403 167.448 16.395 168.05 15.793C168.652 15.191 169.398 14.89 170.286 14.89C171.146 14.89 171.877 15.191 172.479 15.793C173.081 16.395 173.382 17.1403 173.382 18.029C173.382 18.9177 173.081 19.663 172.479 20.265C171.877 20.867 171.146 21.168 170.286 21.168ZM172.694 24.307V48H167.792V24.307H172.694ZM215.71 43.614L222.418 24.307H227.621L218.591 48H212.743L203.756 24.307H209.002L215.71 43.614ZM252.655 24.307L238.121 59.137H233.047L237.863 47.613L228.532 24.307H233.993L240.658 42.367L247.581 24.307H252.655ZM288.981 24.307V48H284.079V45.205C283.305 46.1797 282.287 46.9537 281.026 47.527C279.793 48.0717 278.474 48.344 277.07 48.344C275.206 48.344 273.529 47.957 272.039 47.183C270.577 46.409 269.416 45.2623 268.556 43.743C267.724 42.2237 267.309 40.389 267.309 38.239V24.307H272.168V37.508C272.168 39.6293 272.698 41.2633 273.759 42.41C274.819 43.528 276.267 44.087 278.102 44.087C279.936 44.087 281.384 43.528 282.445 42.41C283.534 41.2633 284.079 39.6293 284.079 37.508V24.307H288.981ZM282.703 17.943L273.2 22.63V19.018L282.703 13.772V17.943ZM300.351 16.18V48H295.449V16.18H300.351ZM346.462 23.92C348.268 23.92 349.874 24.307 351.278 25.081C352.712 25.855 353.83 27.0017 354.632 28.521C355.464 30.0403 355.879 31.875 355.879 34.025V48H351.02V34.756C351.02 32.6347 350.49 31.015 349.429 29.897C348.369 28.7503 346.921 28.177 345.086 28.177C343.252 28.177 341.79 28.7503 340.7 29.897C339.64 31.015 339.109 32.6347 339.109 34.756V48H334.207V16.18H339.109V27.059C339.941 26.0557 340.987 25.2817 342.248 24.737C343.538 24.1923 344.943 23.92 346.462 23.92ZM383.46 24.307L368.926 59.137H363.852L368.668 47.613L359.337 24.307H364.798L371.463 42.367L378.386 24.307H383.46Z" fill="black"/>
<path d="M72.627 48.387C70.391 48.387 68.37 47.8853 66.564 46.882C64.758 45.85 63.339 44.4167 62.307 42.582C61.275 40.7187 60.759 38.5687 60.759 36.132C60.759 33.724 61.2893 31.5883 62.35 29.725C63.4107 27.8617 64.8583 26.4283 66.693 25.425C68.5277 24.4217 70.5773 23.92 72.842 23.92C75.1067 23.92 77.1563 24.4217 78.991 25.425C80.8257 26.4283 82.2733 27.8617 83.334 29.725C84.3947 31.5883 84.925 33.724 84.925 36.132C84.925 38.54 84.3803 40.6757 83.291 42.539C82.2017 44.4023 80.711 45.85 78.819 46.882C76.9557 47.8853 74.8917 48.387 72.627 48.387ZM72.627 44.13C73.8883 44.13 75.0637 43.829 76.153 43.227C77.271 42.625 78.174 41.722 78.862 40.518C79.55 39.314 79.894 37.852 79.894 36.132C79.894 34.412 79.5643 32.9643 78.905 31.789C78.2457 30.585 77.3713 29.682 76.282 29.08C75.1927 28.478 74.0173 28.177 72.756 28.177C71.4947 28.177 70.3193 28.478 69.23 29.08C68.1693 29.682 67.3237 30.585 66.693 31.789C66.0623 32.9643 65.747 34.412 65.747 36.132C65.747 38.6833 66.392 40.6613 67.682 42.066C69.0007 43.442 70.649 44.13 72.627 44.13ZM122.724 48.387C120.488 48.387 118.467 47.8853 116.661 46.882C114.855 45.85 113.436 44.4167 112.404 42.582C111.372 40.7187 110.856 38.5687 110.856 36.132C110.856 33.724 111.386 31.5883 112.447 29.725C113.507 27.8617 114.955 26.4283 116.79 25.425C118.624 24.4217 120.674 23.92 122.939 23.92C125.203 23.92 127.253 24.4217 129.088 25.425C130.922 26.4283 132.37 27.8617 133.431 29.725C134.491 31.5883 135.022 33.724 135.022 36.132C135.022 38.54 134.477 40.6757 133.388 42.539C132.298 44.4023 130.808 45.85 128.916 46.882C127.052 47.8853 124.988 48.387 122.724 48.387ZM122.724 44.13C123.985 44.13 125.16 43.829 126.25 43.227C127.368 42.625 128.271 41.722 128.959 40.518C129.647 39.314 129.991 37.852 129.991 36.132C129.991 34.412 129.661 32.9643 129.002 31.789C128.342 30.585 127.468 29.682 126.379 29.08C125.289 28.478 124.114 28.177 122.853 28.177C121.591 28.177 120.416 28.478 119.327 29.08C118.266 29.682 117.42 30.585 116.79 31.789C116.159 32.9643 115.844 34.412 115.844 36.132C115.844 38.6833 116.489 40.6613 117.779 42.066C119.097 43.442 120.746 44.13 122.724 44.13ZM189.407 48.387C187.171 48.387 185.15 47.8853 183.344 46.882C181.538 45.85 180.119 44.4167 179.087 42.582C178.055 40.7187 177.539 38.5687 177.539 36.132C177.539 33.724 178.07 31.5883 179.13 29.725C180.191 27.8617 181.639 26.4283 183.473 25.425C185.308 24.4217 187.358 23.92 189.622 23.92C191.887 23.92 193.937 24.4217 195.771 25.425C197.606 26.4283 199.054 27.8617 200.114 29.725C201.175 31.5883 201.705 33.724 201.705 36.132C201.705 38.54 201.161 40.6757 200.071 42.539C198.982 44.4023 197.491 45.85 195.599 46.882C193.736 47.8853 191.672 48.387 189.407 48.387ZM189.407 44.13C190.669 44.13 191.844 43.829 192.933 43.227C194.051 42.625 194.954 41.722 195.642 40.518C196.33 39.314 196.674 37.852 196.674 36.132C196.674 34.412 196.345 32.9643 195.685 31.789C195.026 30.585 194.152 29.682 193.062 29.08C191.973 28.478 190.798 28.177 189.536 28.177C188.275 28.177 187.1 28.478 186.01 29.08C184.95 29.682 184.104 30.585 183.473 31.789C182.843 32.9643 182.527 34.412 182.527 36.132C182.527 38.6833 183.172 40.6613 184.462 42.066C185.781 43.442 187.429 44.13 189.407 44.13ZM317.064 48.387C314.828 48.387 312.807 47.8853 311.001 46.882C309.195 45.85 307.776 44.4167 306.744 42.582C305.712 40.7187 305.196 38.5687 305.196 36.132C305.196 33.724 305.726 31.5883 306.787 29.725C307.847 27.8617 309.295 26.4283 311.13 25.425C312.964 24.4217 315.014 23.92 317.279 23.92C319.543 23.92 321.593 24.4217 323.428 25.425C325.262 26.4283 326.71 27.8617 327.771 29.725C328.831 31.5883 329.362 33.724 329.362 36.132C329.362 38.54 328.817 40.6757 327.728 42.539C326.638 44.4023 325.148 45.85 323.256 46.882C321.392 47.8853 319.328 48.387 317.064 48.387ZM317.064 44.13C318.325 44.13 319.5 43.829 320.59 43.227C321.708 42.625 322.611 41.722 323.299 40.518C323.987 39.314 324.331 37.852 324.331 36.132C324.331 34.412 324.001 32.9643 323.342 31.789C322.682 30.585 321.808 29.682 320.719 29.08C319.629 28.478 318.454 28.177 317.193 28.177C315.931 28.177 314.756 28.478 313.667 29.08C312.606 29.682 311.76 30.585 311.13 31.789C310.499 32.9643 310.184 34.412 310.184 36.132C310.184 38.6833 310.829 40.6613 312.119 42.066C313.437 43.442 315.086 44.13 317.064 44.13Z" fill="#CC0000"/>
<circle cx="15" cy="34.4" r="2.5" stroke="#CC0000" stroke-width="2"/>
</svg>
