<svg width="473" height="65" viewBox="0 0 473 65" fill="none" xmlns="http://www.w3.org/2000/svg">
<circle cx="260.23" cy="34.4" r="2.5" stroke="#CC0000" stroke-width="2"/>
<path d="M24.123 27.016C24.123 28.5353 23.7647 29.9687 23.048 31.316C22.3313 32.6633 21.1847 33.767 19.608 34.627C18.0313 35.4583 16.0103 35.874 13.545 35.874H8.127V48H3.225V18.115H13.545C15.8383 18.115 17.7733 18.5163 19.35 19.319C20.9553 20.093 22.145 21.1537 22.919 22.501C23.7217 23.8483 24.123 25.3533 24.123 27.016ZM13.545 31.875C15.4083 31.875 16.7987 31.4593 17.716 30.628C18.6333 29.768 19.092 28.564 19.092 27.016C19.092 23.748 17.243 22.114 13.545 22.114H8.127V31.875H13.545ZM33.7002 27.747C34.4169 26.543 35.3629 25.6113 36.5382 24.952C37.7422 24.264 39.1612 23.92 40.7952 23.92V28.994H39.5482C37.6276 28.994 36.1656 29.4813 35.1622 30.456C34.1876 31.4307 33.7002 33.122 33.7002 35.53V48H28.7982V24.307H33.7002V27.747ZM77.6241 27.833C78.4554 26.6863 79.5877 25.7547 81.0211 25.038C82.4831 24.2927 84.1027 23.92 85.8801 23.92C87.9727 23.92 89.8647 24.4217 91.5561 25.425C93.2474 26.4283 94.5804 27.8617 95.5551 29.725C96.5297 31.5597 97.0171 33.6667 97.0171 36.046C97.0171 38.4253 96.5297 40.561 95.5551 42.453C94.5804 44.3163 93.2331 45.7783 91.5131 46.839C89.8217 47.871 87.9441 48.387 85.8801 48.387C84.0454 48.387 82.4114 48.0287 80.9781 47.312C79.5734 46.5953 78.4554 45.678 77.6241 44.56V48H72.7221V16.18H77.6241V27.833ZM92.0291 36.046C92.0291 34.412 91.6851 33.0073 90.9971 31.832C90.3377 30.628 89.4491 29.725 88.3311 29.123C87.2417 28.4923 86.0664 28.177 84.8051 28.177C83.5724 28.177 82.3971 28.4923 81.2791 29.123C80.1897 29.7537 79.3011 30.671 78.6131 31.875C77.9537 33.079 77.6241 34.498 77.6241 36.132C77.6241 37.766 77.9537 39.1993 78.6131 40.432C79.3011 41.636 80.1897 42.5533 81.2791 43.184C82.3971 43.8147 83.5724 44.13 84.8051 44.13C86.0664 44.13 87.2417 43.8147 88.3311 43.184C89.4491 42.5247 90.3377 41.5787 90.9971 40.346C91.6851 39.1133 92.0291 37.68 92.0291 36.046ZM106.767 16.18V48H101.865V16.18H106.767ZM134.918 35.573C134.918 36.4617 134.86 37.2643 134.746 37.981H116.643C116.786 39.873 117.488 41.3923 118.75 42.539C120.011 43.6857 121.559 44.259 123.394 44.259C126.031 44.259 127.894 43.1553 128.984 40.948H134.273C133.556 43.1267 132.252 44.9183 130.36 46.323C128.496 47.699 126.174 48.387 123.394 48.387C121.129 48.387 119.094 47.8853 117.288 46.882C115.51 45.85 114.106 44.4167 113.074 42.582C112.07 40.7187 111.569 38.5687 111.569 36.132C111.569 33.6953 112.056 31.5597 113.031 29.725C114.034 27.8617 115.424 26.4283 117.202 25.425C119.008 24.4217 121.072 23.92 123.394 23.92C125.63 23.92 127.622 24.4073 129.371 25.382C131.119 26.3567 132.481 27.7327 133.456 29.51C134.43 31.2587 134.918 33.2797 134.918 35.573ZM129.801 34.025C129.772 32.219 129.127 30.7713 127.866 29.682C126.604 28.5927 125.042 28.048 123.179 28.048C121.487 28.048 120.04 28.5927 118.836 29.682C117.632 30.7427 116.915 32.1903 116.686 34.025H129.801ZM168.423 23.92C170.286 23.92 171.949 24.307 173.411 25.081C174.901 25.855 176.062 27.0017 176.894 28.521C177.754 30.0403 178.184 31.875 178.184 34.025V48H173.325V34.756C173.325 32.6347 172.794 31.015 171.734 29.897C170.673 28.7503 169.225 28.177 167.391 28.177C165.556 28.177 164.094 28.7503 163.005 29.897C161.944 31.015 161.414 32.6347 161.414 34.756V48H156.555V34.756C156.555 32.6347 156.024 31.015 154.964 29.897C153.903 28.7503 152.455 28.177 150.621 28.177C148.786 28.177 147.324 28.7503 146.235 29.897C145.174 31.015 144.644 32.6347 144.644 34.756V48H139.742V24.307H144.644V27.016C145.446 26.0413 146.464 25.2817 147.697 24.737C148.929 24.1923 150.248 23.92 151.653 23.92C153.545 23.92 155.236 24.3213 156.727 25.124C158.217 25.9267 159.364 27.0877 160.167 28.607C160.883 27.1737 162.001 26.0413 163.521 25.21C165.04 24.35 166.674 23.92 168.423 23.92ZM232.945 28.306H228.559V48H223.614V28.306H220.819V24.307H223.614V22.63C223.614 19.9067 224.331 17.9287 225.764 16.696C227.226 15.4347 229.505 14.804 232.601 14.804V18.889C231.11 18.889 230.064 19.1757 229.462 19.749C228.86 20.2937 228.559 21.254 228.559 22.63V24.307H232.945V28.306ZM266.476 41.894H253.963L251.813 48H246.696L257.403 18.072H263.079L273.786 48H268.626L266.476 41.894ZM265.1 37.895L260.241 24.006L255.339 37.895H265.1ZM283.344 27.79C284.175 26.7007 285.307 25.7833 286.741 25.038C288.174 24.2927 289.794 23.92 291.6 23.92C293.664 23.92 295.541 24.436 297.233 25.468C298.953 26.4713 300.3 27.8903 301.275 29.725C302.249 31.5597 302.737 33.6667 302.737 36.046C302.737 38.4253 302.249 40.561 301.275 42.453C300.3 44.3163 298.953 45.7783 297.233 46.839C295.541 47.871 293.664 48.387 291.6 48.387C289.794 48.387 288.188 48.0287 286.784 47.312C285.379 46.5667 284.232 45.6493 283.344 44.56V59.266H278.442V24.307H283.344V27.79ZM297.749 36.046C297.749 34.412 297.405 33.0073 296.717 31.832C296.057 30.628 295.169 29.725 294.051 29.123C292.961 28.4923 291.786 28.177 290.525 28.177C289.292 28.177 288.117 28.4923 286.999 29.123C285.909 29.7537 285.021 30.671 284.333 31.875C283.673 33.079 283.344 34.498 283.344 36.132C283.344 37.766 283.673 39.1993 284.333 40.432C285.021 41.636 285.909 42.5533 286.999 43.184C288.117 43.8147 289.292 44.13 290.525 44.13C291.786 44.13 292.961 43.8147 294.051 43.184C295.169 42.5247 296.057 41.5787 296.717 40.346C297.405 39.1133 297.749 37.68 297.749 36.046ZM339.907 16.18V48H335.005V16.18H339.907ZM351.245 16.18V48H346.343V16.18H351.245ZM397.056 23.92C398.919 23.92 400.582 24.307 402.044 25.081C403.535 25.855 404.696 27.0017 405.527 28.521C406.358 30.0403 406.774 31.875 406.774 34.025V48H401.915V34.756C401.915 32.6347 401.385 31.015 400.324 29.897C399.263 28.7503 397.816 28.177 395.981 28.177C394.146 28.177 392.684 28.7503 391.595 29.897C390.534 31.015 390.004 32.6347 390.004 34.756V48H385.102V24.307H390.004V27.016C390.807 26.0413 391.824 25.2817 393.057 24.737C394.318 24.1923 395.651 23.92 397.056 23.92ZM415.521 21.168C414.632 21.168 413.887 20.867 413.285 20.265C412.683 19.663 412.382 18.9177 412.382 18.029C412.382 17.1403 412.683 16.395 413.285 15.793C413.887 15.191 414.632 14.89 415.521 14.89C416.381 14.89 417.112 15.191 417.714 15.793C418.316 16.395 418.617 17.1403 418.617 18.029C418.617 18.9177 418.316 19.663 417.714 20.265C417.112 20.867 416.381 21.168 415.521 21.168ZM417.929 24.307V48H413.027V24.307H417.929ZM445.822 24.307V48H440.92V45.205C440.146 46.1797 439.128 46.9537 437.867 47.527C436.634 48.0717 435.315 48.344 433.911 48.344C432.047 48.344 430.37 47.957 428.88 47.183C427.418 46.409 426.257 45.2623 425.397 43.743C424.565 42.2237 424.15 40.389 424.15 38.239V24.307H429.009V37.508C429.009 39.6293 429.539 41.2633 430.6 42.41C431.66 43.528 433.108 44.087 434.943 44.087C436.777 44.087 438.225 43.528 439.286 42.41C440.375 41.2633 440.92 39.6293 440.92 37.508V24.307H445.822ZM460.889 48.387C459.026 48.387 457.349 48.0573 455.858 47.398C454.396 46.71 453.235 45.7927 452.375 44.646C451.515 43.4707 451.057 42.1663 450.999 40.733H456.073C456.159 41.7363 456.632 42.582 457.492 43.27C458.381 43.9293 459.485 44.259 460.803 44.259C462.179 44.259 463.24 44.001 463.985 43.485C464.759 42.9403 465.146 42.2523 465.146 41.421C465.146 40.5323 464.716 39.873 463.856 39.443C463.025 39.013 461.692 38.54 459.857 38.024C458.08 37.5367 456.632 37.0637 455.514 36.605C454.396 36.1463 453.422 35.444 452.59 34.498C451.788 33.552 451.386 32.305 451.386 30.757C451.386 29.4957 451.759 28.349 452.504 27.317C453.25 26.2563 454.31 25.425 455.686 24.823C457.091 24.221 458.696 23.92 460.502 23.92C463.197 23.92 465.361 24.608 466.995 25.984C468.658 27.3313 469.547 29.1803 469.661 31.531H464.759C464.673 30.4703 464.243 29.6247 463.469 28.994C462.695 28.3633 461.649 28.048 460.33 28.048C459.04 28.048 458.051 28.2917 457.363 28.779C456.675 29.2663 456.331 29.9113 456.331 30.714C456.331 31.3447 456.561 31.875 457.019 32.305C457.478 32.735 458.037 33.079 458.696 33.337C459.356 33.5663 460.33 33.8673 461.62 34.24C463.34 34.6987 464.745 35.1717 465.834 35.659C466.952 36.1177 467.913 36.8057 468.715 37.723C469.518 38.6403 469.934 39.8587 469.962 41.378C469.962 42.7253 469.59 43.9293 468.844 44.99C468.099 46.0507 467.038 46.882 465.662 47.484C464.315 48.086 462.724 48.387 460.889 48.387Z" fill="black"/>
<path d="M55.5782 48.387C53.3422 48.387 51.3212 47.8853 49.5152 46.882C47.7092 45.85 46.2902 44.4167 45.2582 42.582C44.2262 40.7187 43.7102 38.5687 43.7102 36.132C43.7102 33.724 44.2405 31.5883 45.3012 29.725C46.3618 27.8617 47.8095 26.4283 49.6442 25.425C51.4788 24.4217 53.5285 23.92 55.7932 23.92C58.0578 23.92 60.1075 24.4217 61.9422 25.425C63.7768 26.4283 65.2245 27.8617 66.2852 29.725C67.3458 31.5883 67.8762 33.724 67.8762 36.132C67.8762 38.54 67.3315 40.6757 66.2422 42.539C65.1528 44.4023 63.6622 45.85 61.7702 46.882C59.9068 47.8853 57.8428 48.387 55.5782 48.387ZM55.5782 44.13C56.8395 44.13 58.0148 43.829 59.1042 43.227C60.2222 42.625 61.1252 41.722 61.8132 40.518C62.5012 39.314 62.8452 37.852 62.8452 36.132C62.8452 34.412 62.5155 32.9643 61.8562 31.789C61.1968 30.585 60.3225 29.682 59.2332 29.08C58.1438 28.478 56.9685 28.177 55.7072 28.177C54.4458 28.177 53.2705 28.478 52.1812 29.08C51.1205 29.682 50.2748 30.585 49.6442 31.789C49.0135 32.9643 48.6982 34.412 48.6982 36.132C48.6982 38.6833 49.3432 40.6613 50.6332 42.066C51.9518 43.442 53.6002 44.13 55.5782 44.13ZM205.868 48.387C203.632 48.387 201.611 47.8853 199.805 46.882C197.999 45.85 196.58 44.4167 195.548 42.582C194.516 40.7187 194 38.5687 194 36.132C194 33.724 194.531 31.5883 195.591 29.725C196.652 27.8617 198.1 26.4283 199.934 25.425C201.769 24.4217 203.819 23.92 206.083 23.92C208.348 23.92 210.398 24.4217 212.232 25.425C214.067 26.4283 215.515 27.8617 216.575 29.725C217.636 31.5883 218.166 33.724 218.166 36.132C218.166 38.54 217.622 40.6757 216.532 42.539C215.443 44.4023 213.952 45.85 212.06 46.882C210.197 47.8853 208.133 48.387 205.868 48.387ZM205.868 44.13C207.13 44.13 208.305 43.829 209.394 43.227C210.512 42.625 211.415 41.722 212.103 40.518C212.791 39.314 213.135 37.852 213.135 36.132C213.135 34.412 212.806 32.9643 212.146 31.789C211.487 30.585 210.613 29.682 209.523 29.08C208.434 28.478 207.259 28.177 205.997 28.177C204.736 28.177 203.561 28.478 202.471 29.08C201.411 29.682 200.565 30.585 199.934 31.789C199.304 32.9643 198.988 34.412 198.988 36.132C198.988 38.6833 199.633 40.6613 200.923 42.066C202.242 43.442 203.89 44.13 205.868 44.13ZM317.861 48.387C315.625 48.387 313.604 47.8853 311.798 46.882C309.992 45.85 308.573 44.4167 307.541 42.582C306.509 40.7187 305.993 38.5687 305.993 36.132C305.993 33.724 306.524 31.5883 307.584 29.725C308.645 27.8617 310.093 26.4283 311.927 25.425C313.762 24.4217 315.812 23.92 318.076 23.92C320.341 23.92 322.391 24.4217 324.225 25.425C326.06 26.4283 327.508 27.8617 328.568 29.725C329.629 31.5883 330.159 33.724 330.159 36.132C330.159 38.54 329.615 40.6757 328.525 42.539C327.436 44.4023 325.945 45.85 324.053 46.882C322.19 47.8853 320.126 48.387 317.861 48.387ZM317.861 44.13C319.123 44.13 320.298 43.829 321.387 43.227C322.505 42.625 323.408 41.722 324.096 40.518C324.784 39.314 325.128 37.852 325.128 36.132C325.128 34.412 324.799 32.9643 324.139 31.789C323.48 30.585 322.606 29.682 321.516 29.08C320.427 28.478 319.252 28.177 317.99 28.177C316.729 28.177 315.554 28.478 314.464 29.08C313.404 29.682 312.558 30.585 311.927 31.789C311.297 32.9643 310.981 34.412 310.981 36.132C310.981 38.6833 311.626 40.6613 312.916 42.066C314.235 43.442 315.883 44.13 317.861 44.13ZM367.958 48.387C365.722 48.387 363.701 47.8853 361.895 46.882C360.089 45.85 358.67 44.4167 357.638 42.582C356.606 40.7187 356.09 38.5687 356.09 36.132C356.09 33.724 356.62 31.5883 357.681 29.725C358.742 27.8617 360.189 26.4283 362.024 25.425C363.859 24.4217 365.908 23.92 368.173 23.92C370.438 23.92 372.487 24.4217 374.322 25.425C376.157 26.4283 377.604 27.8617 378.665 29.725C379.726 31.5883 380.256 33.724 380.256 36.132C380.256 38.54 379.711 40.6757 378.622 42.539C377.533 44.4023 376.042 45.85 374.15 46.882C372.287 47.8853 370.223 48.387 367.958 48.387ZM367.958 44.13C369.219 44.13 370.395 43.829 371.484 43.227C372.602 42.625 373.505 41.722 374.193 40.518C374.881 39.314 375.225 37.852 375.225 36.132C375.225 34.412 374.895 32.9643 374.236 31.789C373.577 30.585 372.702 29.682 371.613 29.08C370.524 28.478 369.348 28.177 368.087 28.177C366.826 28.177 365.65 28.478 364.561 29.08C363.5 29.682 362.655 30.585 362.024 31.789C361.393 32.9643 361.078 34.412 361.078 36.132C361.078 38.6833 361.723 40.6613 363.013 42.066C364.332 43.442 365.98 44.13 367.958 44.13Z" fill="#CC0000"/>
</svg>
