<?xml version="1.0" encoding="UTF-8" standalone="no"?>
<!-- Created with Inkscape (http://www.inkscape.org/) -->

<svg
   width="159.88638mm"
   height="32.348114mm"
   viewBox="0 0 159.88638 32.348114"
   version="1.1"
   id="svg5"
   xmlns="http://www.w3.org/2000/svg"
   xmlns:svg="http://www.w3.org/2000/svg">
  <defs
     id="defs2" />
  <g
     id="layer1"
     transform="translate(-110.98355,-141.90697)">
    <g
       id="g836"
       transform="translate(-47.529518,55.791542)">
      <path
         style="fill:#cc0000;stroke-width:0.0846667"
         d="m 254.64547,118.29893 c 0,-0.0905 0.6477,-1.56062 1.43933,-3.26691 0.79163,-1.70629 1.43933,-3.12916 1.43933,-3.16193 0,-0.0328 -1.16203,-2.34408 -2.5823,-5.13625 -1.42026,-2.79218 -2.58231,-5.12431 -2.58233,-5.18252 -3e-5,-0.0779 0.23304,-0.10583 0.8832,-0.10583 0.86801,0 0.88601,0.004 1.04443,0.23283 0.0887,0.12806 1.00974,1.90924 2.04685,3.95817 1.03712,2.04893 1.93247,3.77487 1.98968,3.83542 0.0854,0.0903 0.12017,0.0903 0.19407,0 0.0495,-0.0605 0.87888,-1.78649 1.84301,-3.83542 0.96414,-2.04893 1.79178,-3.77296 1.83922,-3.83117 0.12413,-0.15232 1.92817,-0.14957 1.92817,0.003 0,0.0598 -1.10812,2.46965 -2.46247,5.35517 -1.35436,2.88551 -3.05311,6.52274 -3.77501,8.08272 -0.72188,1.55998 -1.36725,2.92206 -1.43414,3.02683 -0.1128,0.1767 -0.18281,0.1905 -0.96633,0.1905 -0.78011,0 -0.84471,-0.0126 -0.84471,-0.16456 z m 54.27132,-0.254 c 0,-0.0905 0.6477,-1.56062 1.43934,-3.26691 0.79163,-1.70629 1.43933,-3.12916 1.43933,-3.16193 0,-0.0328 -1.16203,-2.34408 -2.5823,-5.13625 -1.42026,-2.79218 -2.58231,-5.12431 -2.58233,-5.18252 -3e-5,-0.0779 0.23304,-0.10583 0.8832,-0.10583 0.86801,0 0.88601,0.004 1.04443,0.23283 0.0886,0.12806 1.00974,1.90924 2.04685,3.95817 1.03712,2.04893 1.93247,3.77487 1.98968,3.83542 0.0854,0.0903 0.12017,0.0903 0.19407,0 0.0495,-0.0606 0.87888,-1.78649 1.84301,-3.83542 0.96414,-2.04893 1.79178,-3.77296 1.83922,-3.83117 0.12413,-0.15232 1.92817,-0.14957 1.92817,0.003 0,0.0598 -1.10812,2.46965 -2.46247,5.35517 -1.35436,2.88551 -3.05311,6.52274 -3.77501,8.08272 -0.72188,1.55998 -1.36725,2.92206 -1.43414,3.02683 -0.1128,0.1767 -0.18281,0.1905 -0.96633,0.1905 -0.78011,0 -0.84472,-0.0126 -0.84472,-0.16456 z m -131.18324,-0.5309 c -0.0216,-0.10645 -0.0616,-3.80822 -0.0887,-8.22615 -0.0367,-5.96247 -0.0245,-8.06265 0.0473,-8.14917 0.12544,-0.15114 1.43451,-0.1635 1.58306,-0.0149 0.072,0.072 0.1016,0.57761 0.1016,1.73566 0,0.89874 0.0286,1.63403 0.0635,1.63398 0.0349,-5e-5 0.19476,-0.29203 0.35519,-0.64884 0.90632,-2.01573 2.87965,-3.25442 5.00013,-3.13863 1.80321,0.0985 3.31565,0.96901 4.26682,2.45593 0.39348,0.6151 0.55061,1.01021 0.69247,1.74125 0.46388,2.39047 -0.67396,4.71436 -2.84757,5.81581 -1.07677,0.54564 -2.74565,0.66177 -3.88987,0.27067 -0.94182,-0.32191 -1.41082,-0.61496 -2.12235,-1.3261 -0.4815,-0.48124 -0.73352,-0.82305 -1.01436,-1.37574 -0.20553,-0.40448 -0.39347,-0.71542 -0.41765,-0.69098 -0.0242,0.0244 -0.044,2.29848 -0.044,5.05341 v 5.00898 l -0.82313,0.0242 c -0.79836,0.0235 -0.8243,0.0184 -0.86246,-0.16933 z m 7.91481,-8.18994 c 1.31158,-0.40822 2.2569,-1.52344 2.45014,-2.89052 0.20955,-1.48255 -0.62658,-3.00281 -2.01265,-3.65939 -0.53089,-0.25149 -0.63274,-0.27017 -1.45971,-0.26767 -1.14933,0.003 -1.65626,0.19103 -2.4021,0.88872 -1.262,1.18054 -1.50456,2.91281 -0.61937,4.42327 0.41203,0.70308 1.34689,1.38835 2.15329,1.5784 0.55254,0.13023 1.33484,0.10009 1.8904,-0.0728 z m 111.27724,2.36999 -0.1802,-0.0755 -0.0588,-6.46237 c -0.0323,-3.55431 -0.0655,-9.110325 -0.0738,-12.346709 l -0.015,-5.884333 h 0.80433 0.80433 l 0.0539,1.100667 c 0.0296,0.605366 0.0582,2.856551 0.0635,5.002633 0.0132,5.319471 0.10727,10.533702 0.19014,10.533702 0.0375,0 0.17424,-0.21832 0.30374,-0.48516 0.32145,-0.6624 1.05569,-1.37872 1.77233,-1.72907 0.57349,-0.28037 0.59261,-0.28344 1.76511,-0.28344 h 1.18533 l 0.55346,0.31156 c 0.9793,0.55127 1.76229,1.51788 2.02258,2.4969 0.10326,0.38843 0.22508,7.35868 0.13364,7.64679 -0.0492,0.15488 -0.12676,0.17042 -0.8511,0.17042 -0.75706,0 -0.79922,-0.01 -0.84099,-0.1905 -0.0242,-0.10478 -0.0535,-1.77165 -0.0651,-3.70417 -0.0206,-3.42666 -0.0257,-3.52219 -0.20552,-3.85811 -0.50723,-0.94762 -1.6494,-1.42388 -2.68448,-1.11937 -0.52853,0.15549 -1.26011,0.92199 -1.39712,1.46381 -0.1748,0.69125 -0.15039,0.67457 -1.02719,0.70186 l -0.78788,0.0245 0.0546,3.23514 c 0.03,1.77933 0.0267,3.27778 -0.007,3.32988 -0.0807,0.12319 -1.27829,0.2189 -1.51225,0.12085 z m -76.62673,-0.10667 c -0.0387,-0.0599 -0.081,-2.50109 -0.094,-5.42485 l -0.0236,-5.31593 0.82795,0.0243 0.82794,0.0243 0.0423,1.2421 c 0.0233,0.68316 0.0668,1.26644 0.0967,1.29619 0.0299,0.0298 0.18032,-0.16725 0.33419,-0.43777 0.38395,-0.67498 1.0624,-1.31583 1.74798,-1.6511 0.5652,-0.2764 0.58838,-0.28009 1.75809,-0.28009 h 1.18533 l 0.55346,0.31156 c 0.9793,0.55127 1.76229,1.51788 2.02257,2.4969 0.10327,0.38843 0.22509,7.35868 0.13365,7.64679 -0.0492,0.15488 -0.12676,0.17042 -0.85111,0.17042 -0.75706,0 -0.79921,-0.01 -0.84098,-0.1905 -0.0242,-0.10478 -0.0535,-1.77165 -0.0651,-3.70417 -0.0206,-3.42666 -0.0257,-3.52219 -0.20551,-3.85811 -0.50723,-0.94762 -1.64941,-1.42388 -2.68448,-1.11937 -0.52853,0.15549 -1.26011,0.92199 -1.39712,1.46381 -0.17362,0.68658 -0.15704,0.67459 -0.97017,0.70179 l -0.73091,0.0245 -0.0221,3.31988 -0.0222,3.31988 -0.77626,0.0243 c -0.56193,0.0175 -0.7957,-0.006 -0.84667,-0.0847 z m 24.82771,-0.0598 c -0.17649,-0.19501 -5.21268,-10.07842 -5.21294,-10.23026 -1.7e-4,-0.0779 0.23282,-0.10583 0.88306,-0.10583 0.86801,0 0.88601,0.004 1.04443,0.23283 0.0887,0.12806 1.01036,1.90924 2.04823,3.95817 1.88465,3.72061 2.00111,3.937 2.11878,3.937 0.0344,0 0.8718,-1.70497 1.86083,-3.78883 0.98901,-2.08386 1.85241,-3.87456 1.91864,-3.97934 0.11179,-0.17684 0.18117,-0.1905 0.9678,-0.1905 0.60487,0 0.85912,0.0306 0.88844,0.10704 0.0456,0.1188 -4.55127,9.83847 -4.76444,10.07403 -0.20509,0.22662 -1.54469,0.21568 -1.75283,-0.0143 z m -43.64093,0.002 c -0.0963,-0.061 -0.144,-2.16795 -0.27919,-12.33081 -0.0897,-6.741481 -0.14338,-12.308489 -0.11934,-12.371128 0.0322,-0.0838 0.24618,-0.11389 0.81017,-0.11389 0.71578,0 0.77153,0.0126 0.84288,0.1905 0.042,0.104775 0.14203,5.671205 0.22224,12.369844 0.12477,10.419594 0.12876,12.190164 0.0276,12.254204 -0.15253,0.0966 -1.35232,0.0976 -1.50438,0.001 z m 2.72996,-0.005 -0.1802,-0.0755 -0.0588,-6.46237 c -0.0323,-3.55431 -0.0655,-9.110329 -0.0738,-12.346712 l -0.015,-5.884333 h 0.80434 0.80433 l 0.0521,1.185333 c 0.0286,0.651933 0.0765,5.281083 0.10645,10.287 0.0299,5.005912 0.0754,9.997012 0.10111,11.091332 0.0257,1.09432 0.0159,2.0323 -0.0218,2.08441 -0.0892,0.12347 -1.28531,0.21864 -1.51868,0.12085 z m 30.03862,-0.0521 c -0.87154,-0.23449 -1.54053,-0.63351 -2.26143,-1.34885 -1.09764,-1.08917 -1.57834,-2.23587 -1.57944,-3.76767 -0.002,-2.25823 1.50037,-4.31554 3.65681,-5.00882 0.8448,-0.27159 2.36393,-0.24799 3.25325,0.0505 1.42287,0.47764 2.65125,1.60921 3.22259,2.96861 0.19513,0.46428 0.38376,1.48186 0.38199,2.06062 -0.007,2.30407 -1.67272,4.476 -3.86913,5.04515 -0.64747,0.16777 -2.18175,0.168 -2.80464,4.2e-4 z m 2.44812,-1.72526 c 1.31159,-0.40821 2.25691,-1.52343 2.45014,-2.89052 0.20956,-1.48254 -0.62657,-3.0028 -2.01264,-3.65939 -0.5309,-0.25149 -0.63274,-0.27016 -1.45972,-0.26766 -1.14933,0.003 -1.65625,0.19102 -2.40209,0.88872 -1.262,1.18053 -1.50456,2.9128 -0.61938,4.42326 0.41204,0.70308 1.3469,1.38836 2.1533,1.57841 0.55254,0.13022 1.33484,0.10009 1.89039,-0.0728 z m -29.92697,1.70315 c -0.026,-0.042 -0.0853,-2.43139 -0.13187,-5.30969 -0.0613,-3.79045 -0.059,-5.26417 0.008,-5.34533 0.12521,-0.15086 1.45448,-0.15611 1.57829,-0.006 0.0574,0.0694 0.0973,1.92526 0.1162,5.3975 l 0.0288,5.29166 -0.77627,0.0243 c -0.42694,0.0133 -0.79751,-0.0101 -0.82349,-0.0522 z m 6.76442,-0.0137 c -1.11748,-0.15662 -2.04705,-0.63954 -2.92472,-1.51942 -1.05432,-1.05697 -1.53567,-2.21306 -1.53567,-3.68833 0,-2.30583 1.43011,-4.28983 3.64364,-5.05484 0.46972,-0.16234 0.73071,-0.19373 1.57875,-0.18988 0.87858,0.004 1.10565,0.0357 1.67876,0.23444 1.15971,0.40218 2.06342,1.09424 2.71673,2.08048 0.46897,0.70796 0.62504,1.08178 0.77562,1.85775 0.46387,2.39047 -0.67396,4.71436 -2.84757,5.81581 -0.80008,0.40543 -2.10418,0.60154 -3.08554,0.46399 z m 1.82655,-1.85882 c 1.31159,-0.40822 2.25691,-1.52344 2.45014,-2.89052 0.20956,-1.48255 -0.62657,-3.00281 -2.01264,-3.65939 -0.53089,-0.25149 -0.63274,-0.27017 -1.45971,-0.26767 -1.14934,0.003 -1.65626,0.19103 -2.4021,0.88872 -1.262,1.18054 -1.50456,2.91281 -0.61937,4.42327 0.41203,0.70308 1.34689,1.38835 2.15329,1.5784 0.55254,0.13023 1.33484,0.10009 1.89039,-0.0728 z m 74.6656,1.85776 c -1.1054,-0.17417 -2.01719,-0.65517 -2.87821,-1.51836 -1.05432,-1.05697 -1.53567,-2.21306 -1.53567,-3.68833 0,-2.0442 1.12062,-3.85518 2.93639,-4.74538 1.27321,-0.6242 2.61325,-0.71123 3.96491,-0.25749 1.46848,0.49295 2.70495,1.65325 3.25796,3.05724 0.18893,0.47966 0.3555,1.44448 0.35333,2.04651 -0.008,2.22496 -1.70978,4.41718 -3.85691,4.96854 -0.65748,0.16884 -1.65417,0.22987 -2.2418,0.13727 z m 1.87306,-1.85776 c 1.31159,-0.40822 2.25691,-1.52344 2.45014,-2.89052 0.20956,-1.48255 -0.62657,-3.00281 -2.01263,-3.65939 -0.5309,-0.25149 -0.63275,-0.27017 -1.45972,-0.26767 -1.14934,0.003 -1.65626,0.19103 -2.4021,0.88872 -1.262,1.18054 -1.50456,2.91281 -0.61938,4.42327 0.41204,0.70308 1.3469,1.38835 2.1533,1.5784 0.55254,0.13023 1.33484,0.10009 1.89039,-0.0728 z m -10.84355,1.78185 -0.381,-0.0508 -0.0235,-1.2065 c -0.0146,-0.74756 -0.0563,-1.2065 -0.10977,-1.2065 -0.0474,0 -0.15118,0.11799 -0.23051,0.26221 -0.50517,0.9184 -1.37651,1.65981 -2.27789,1.93822 -0.40066,0.12375 -0.78882,0.17023 -1.42145,0.17023 -0.84421,0 -0.89022,-0.01 -1.53625,-0.33387 -1.02013,-0.51143 -1.72756,-1.28443 -2.08349,-2.27658 -0.16445,-0.45839 -0.17136,-0.64846 -0.15432,-4.24443 0.01,-2.07051 0.0364,-3.79453 0.059,-3.83117 0.0677,-0.1096 1.42451,-0.0787 1.53824,0.035 0.075,0.075 0.10279,0.88861 0.10616,3.1115 0.006,3.6267 0.0508,4.17734 0.38878,4.72396 0.29623,0.47914 0.83565,0.83325 1.4716,0.96605 0.38878,0.0812 0.54323,0.0735 0.95924,-0.0478 0.63765,-0.18595 1.26353,-0.77729 1.40821,-1.33052 0.22937,-0.877 0.1269,-0.79086 0.97363,-0.8185 0.47141,-0.0154 0.78365,-0.0633 0.82694,-0.127 0.0382,-0.0562 0.0438,-1.50176 0.0123,-3.21224 -0.045,-2.44453 -0.0344,-3.13748 0.0494,-3.2385 0.13792,-0.16619 1.45871,-0.18504 1.59036,-0.0227 0.10454,0.12891 0.18053,10.55205 0.0781,10.71033 -0.0712,0.11001 -0.55441,0.12151 -1.24384,0.0296 z m 2.23281,-0.005 -0.1802,-0.0755 -0.0588,-6.46237 c -0.0323,-3.5543 -0.0655,-9.110322 -0.0738,-12.346705 l -0.015,-5.884334 h 0.80434 0.80433 l 0.052,1.185334 c 0.0286,0.651933 0.0765,5.281083 0.10646,10.287 0.0299,5.005915 0.0754,9.997015 0.10111,11.091335 0.0257,1.09431 0.0159,2.0323 -0.0218,2.08441 -0.0893,0.12346 -1.28532,0.21864 -1.51868,0.12085 z m -88.68165,-0.0889 c -1.1054,-0.17417 -2.01718,-0.65517 -2.87821,-1.51836 -1.05509,-1.05774 -1.54032,-2.22159 -1.53775,-3.68834 0.004,-2.04626 1.12416,-3.85589 2.93848,-4.74537 0.89702,-0.43978 1.54578,-0.57584 2.49781,-0.52385 2.77508,0.15153 4.90244,2.22695 5.05397,4.93056 0.12018,2.14418 -1.0156,4.10613 -2.94225,5.08243 -0.80425,0.40754 -2.18673,0.61188 -3.13205,0.46293 z m 1.87307,-1.85777 c 1.31159,-0.40821 2.2569,-1.52343 2.45014,-2.89052 0.20956,-1.48254 -0.62658,-3.0028 -2.01264,-3.65939 -0.5309,-0.25149 -0.63275,-0.27016 -1.45972,-0.26766 -1.14933,0.003 -1.65626,0.19102 -2.4021,0.88872 -1.26199,1.18053 -1.50456,2.91281 -0.61937,4.42326 0.41203,0.70308 1.34689,1.38836 2.15329,1.57841 0.55254,0.13023 1.33485,0.10009 1.8904,-0.0728 z m -37.97185,1.61599 c -0.0247,-0.04 0.54797,-1.74498 1.27267,-3.78883 0.72469,-2.04385 1.51857,-4.28759 1.76416,-4.98609 2.26287,-6.435836 5.66287,-15.934602 5.7346,-16.021029 0.1235,-0.148804 1.70716,-0.150654 1.82652,-0.0021 0.0468,0.05821 1.10276,3.325283 2.34662,7.260167 1.24385,3.934883 2.3898,7.554382 2.54655,8.043332 1.6808,5.24309 2.9197,9.26757 2.88265,9.36411 -0.0346,0.0901 -0.2384,0.11855 -0.8495,0.11855 -0.67974,0 -0.816,-0.0229 -0.88156,-0.14816 -0.0427,-0.0815 -0.61942,-1.86267 -1.2817,-3.95817 -0.66227,-2.0955 -1.24298,-3.85762 -1.29046,-3.91583 -0.0672,-0.0823 -1.11893,-0.10584 -4.73694,-0.10584 h -4.65062 l -0.11358,0.27517 c -0.0625,0.15134 -0.69237,1.91347 -1.39978,3.91583 -0.70741,2.00237 -1.34103,3.7264 -1.40805,3.83117 -0.11222,0.17545 -0.18487,0.1905 -0.91924,0.1905 -0.43856,0 -0.81761,-0.0327 -0.84234,-0.0727 z m 8.24763,-9.98699 c 0,-0.038 -0.14699,-0.15169 -0.32665,-0.25267 -0.37517,-0.21085 -0.95086,-0.807461 -1.14914,-1.190892 -0.0745,-0.144101 -0.18638,-0.460896 -0.2486,-0.703988 -0.0622,-0.243094 -0.14972,-0.45419 -0.19446,-0.469104 -0.0776,-0.02586 -0.96701,2.359094 -0.96215,2.579894 0.002,0.0804 0.34789,0.10583 1.44167,0.10583 0.79163,0 1.43933,-0.0311 1.43933,-0.0691 z m 5.19333,0.006 c 0.0611,-0.10036 -0.74099,-2.586944 -0.84571,-2.621851 -0.0521,-0.01735 -0.12046,0.112071 -0.15319,0.289831 -0.14936,0.811147 -0.63624,1.53167 -1.35935,2.01164 -0.25542,0.16955 -0.46441,0.32528 -0.46441,0.34607 0,0.066 2.78226,0.0407 2.82266,-0.0257 z m -3.14498,-1.954877 c 0.31147,-0.290538 0.35263,-0.375373 0.38778,-0.799228 0.0484,-0.583497 -0.1627,-0.983356 -0.6383,-1.209122 -0.86236,-0.409361 -1.76037,0.07024 -1.85409,0.990216 -0.0776,0.761314 0.48548,1.343172 1.29973,1.343172 0.41235,0 0.49007,-0.03139 0.80488,-0.325038 z m 0.53253,-6.503822 c -0.99609,-3.14197 -1.15988,-3.595024 -1.26261,-3.492301 -0.072,0.07198 -2.41893,6.768791 -2.41893,6.902202 0,0.09471 0.1189,0.0441 0.42594,-0.181288 0.63196,-0.463907 1.18605,-0.646454 1.96218,-0.646454 0.78008,0 1.32943,0.21486 1.92988,0.754806 0.31715,0.285199 0.38535,0.316965 0.40701,0.18956 0.0143,-0.08418 -0.45526,-1.671114 -1.04347,-3.526525 z m 37.44167,6.065536 c -0.49093,-0.386159 -0.47327,-1.132932 0.0369,-1.562238 0.77486,-0.652003 1.85976,0.306519 1.38534,1.223961 -0.0696,0.134561 -0.21142,0.304118 -0.31518,0.376795 -0.27,0.189119 -0.84305,0.169181 -1.10709,-0.03852 z m 70.22632,-1.334938 c -0.0537,-0.01788 -0.0975,-0.06738 -0.0975,-0.109981 0,-0.1268 1.70321,-2.448019 1.85237,-2.524495 0.22002,-0.112816 1.9367,-0.19563 1.99803,-0.09639 0.0806,0.130392 -1.73481,2.626313 -1.94113,2.668776 -0.24877,0.0512 -1.69563,0.100786 -1.81173,0.06209 z"
         id="path840" />
      <path
         style="fill:#0f0f0f;stroke-width:0.0846667"
         d="m 254.64547,118.29893 c 0,-0.0905 0.6477,-1.56062 1.43933,-3.26691 0.79163,-1.70629 1.43933,-3.12916 1.43933,-3.16193 0,-0.0328 -1.16203,-2.34408 -2.5823,-5.13625 -1.42026,-2.79218 -2.58231,-5.12431 -2.58233,-5.18252 -3e-5,-0.0779 0.23304,-0.10583 0.8832,-0.10583 0.86801,0 0.88601,0.004 1.04443,0.23283 0.0887,0.12806 1.00974,1.90924 2.04685,3.95817 1.03712,2.04893 1.93247,3.77487 1.98968,3.83542 0.0854,0.0903 0.12017,0.0903 0.19407,0 0.0495,-0.0605 0.87888,-1.78649 1.84301,-3.83542 0.96414,-2.04893 1.79178,-3.77296 1.83922,-3.83117 0.12413,-0.15232 1.92817,-0.14957 1.92817,0.003 0,0.0598 -1.10812,2.46965 -2.46247,5.35517 -1.35436,2.88551 -3.05311,6.52274 -3.77501,8.08272 -0.72188,1.55998 -1.36725,2.92206 -1.43414,3.02683 -0.1128,0.1767 -0.18281,0.1905 -0.96633,0.1905 -0.78011,0 -0.84471,-0.0126 -0.84471,-0.16456 z m 54.27132,-0.254 c 0,-0.0905 0.6477,-1.56062 1.43934,-3.26691 0.79163,-1.70629 1.43933,-3.12916 1.43933,-3.16193 0,-0.0328 -1.16203,-2.34408 -2.5823,-5.13625 -1.42026,-2.79218 -2.58231,-5.12431 -2.58233,-5.18252 -3e-5,-0.0779 0.23304,-0.10583 0.8832,-0.10583 0.86801,0 0.88601,0.004 1.04443,0.23283 0.0886,0.12806 1.00974,1.90924 2.04685,3.95817 1.03712,2.04893 1.93247,3.77487 1.98968,3.83542 0.0854,0.0903 0.12017,0.0903 0.19407,0 0.0495,-0.0606 0.87888,-1.78649 1.84301,-3.83542 0.96414,-2.04893 1.79178,-3.77296 1.83922,-3.83117 0.12413,-0.15232 1.92817,-0.14957 1.92817,0.003 0,0.0598 -1.10812,2.46965 -2.46247,5.35517 -1.35436,2.88551 -3.05311,6.52274 -3.77501,8.08272 -0.72188,1.55998 -1.36725,2.92206 -1.43414,3.02683 -0.1128,0.1767 -0.18281,0.1905 -0.96633,0.1905 -0.78011,0 -0.84472,-0.0126 -0.84472,-0.16456 z m -131.18324,-0.5309 c -0.0216,-0.10645 -0.0616,-3.80822 -0.0887,-8.22615 -0.0367,-5.96247 -0.0245,-8.06265 0.0473,-8.14917 0.12875,-0.15513 1.45682,-0.16415 1.57858,-0.0107 0.0537,0.0677 0.0956,3.06512 0.1162,8.3185 l 0.0322,8.21267 -0.82313,0.0242 c -0.79836,0.0235 -0.8243,0.0184 -0.86246,-0.16933 z m 119.19205,-5.81995 -0.1802,-0.0755 -0.0588,-6.46237 c -0.0323,-3.55431 -0.0655,-9.110325 -0.0738,-12.346709 l -0.015,-5.884333 h 0.80433 0.80433 l 0.0521,1.185333 c 0.0286,0.651934 0.0765,5.281084 0.10646,10.287 0.0299,5.005919 0.0754,9.997019 0.10111,11.091329 0.0257,1.09432 0.0159,2.03231 -0.0218,2.08441 -0.0892,0.12347 -1.28531,0.21865 -1.51868,0.12085 z m -76.62673,-0.10667 c -0.0387,-0.0599 -0.081,-2.50109 -0.094,-5.42485 l -0.0236,-5.31593 0.82795,0.0243 0.82794,0.0243 0.0625,2.70933 c 0.0344,1.49013 0.0534,3.90948 0.0423,5.37633 l -0.0201,2.667 -0.77626,0.0243 c -0.56193,0.0175 -0.7957,-0.006 -0.84667,-0.0847 z m 7.71813,-0.0877 c -0.0255,-0.10478 -0.0358,-1.61925 -0.0228,-3.3655 l 0.0236,-3.175 0.75428,-0.0247 c 0.41485,-0.0136 0.78367,0.005 0.81961,0.0423 0.0832,0.0853 0.20565,6.18834 0.1302,6.48894 -0.056,0.22296 -0.0614,0.22439 -0.85742,0.22439 -0.7606,0 -0.80345,-0.01 -0.84747,-0.1905 z m 17.10958,0.0279 c -0.17649,-0.19501 -5.21268,-10.07842 -5.21294,-10.23026 -1.7e-4,-0.0779 0.23282,-0.10583 0.88306,-0.10583 0.86801,0 0.88601,0.004 1.04443,0.23283 0.0887,0.12806 1.01036,1.90924 2.04823,3.95817 1.88465,3.72061 2.00111,3.937 2.11878,3.937 0.0344,0 0.8718,-1.70497 1.86083,-3.78883 0.98901,-2.08386 1.85241,-3.87456 1.91864,-3.97934 0.11179,-0.17684 0.18117,-0.1905 0.9678,-0.1905 0.60487,0 0.85912,0.0306 0.88844,0.10704 0.0456,0.1188 -4.55127,9.83847 -4.76444,10.07403 -0.20509,0.22662 -1.54469,0.21568 -1.75283,-0.0143 z m 59.42908,-0.0279 c -0.0255,-0.10478 -0.0358,-1.61925 -0.0228,-3.3655 l 0.0236,-3.175 0.75428,-0.0247 c 0.41485,-0.0136 0.78367,0.005 0.81961,0.0423 0.0832,0.0853 0.20564,6.18834 0.13021,6.48894 -0.056,0.22296 -0.0614,0.22439 -0.85743,0.22439 -0.7606,0 -0.80345,-0.01 -0.84747,-0.1905 z m -103.07001,0.0297 c -0.0963,-0.061 -0.144,-2.16795 -0.27919,-12.330811 -0.0897,-6.741481 -0.14338,-12.308489 -0.11934,-12.371127 0.0322,-0.0838 0.24618,-0.113891 0.81017,-0.113891 0.71578,0 0.77153,0.0126 0.84288,0.1905 0.042,0.104775 0.14203,5.671205 0.22224,12.369844 0.12477,10.419595 0.12876,12.190165 0.0276,12.254205 -0.15253,0.0966 -1.35232,0.0976 -1.50438,10e-4 z m 2.72996,-0.005 -0.1802,-0.0755 -0.0588,-6.46237 c -0.0323,-3.55431 -0.0655,-9.110329 -0.0738,-12.346712 l -0.015,-5.884333 h 0.80434 0.80433 l 0.0521,1.185333 c 0.0286,0.651933 0.0765,5.281083 0.10645,10.287 0.0299,5.005912 0.0754,9.997012 0.10111,11.091332 0.0257,1.09432 0.0159,2.0323 -0.0218,2.08441 -0.0892,0.12347 -1.28531,0.21864 -1.51868,0.12085 z m 2.55977,-0.0742 c -0.026,-0.042 -0.0853,-2.43139 -0.13187,-5.30969 -0.0613,-3.79045 -0.059,-5.26417 0.008,-5.34533 0.12521,-0.15086 1.45448,-0.15611 1.57829,-0.006 0.0574,0.0694 0.0973,1.92526 0.1162,5.3975 l 0.0288,5.29166 -0.77627,0.0243 c -0.42694,0.0133 -0.79751,-0.0101 -0.82349,-0.0522 z m 74.28608,-0.0906 -0.381,-0.0508 -0.063,-5.28358 c -0.0459,-3.84949 -0.0374,-5.3145 0.0315,-5.3975 0.12668,-0.15264 1.45549,-0.15945 1.57824,-0.008 0.10454,0.12891 0.18053,10.55205 0.0781,10.71034 -0.0712,0.11 -0.55441,0.12151 -1.24384,0.0296 z m 2.23281,-0.005 -0.1802,-0.0755 -0.0588,-6.46237 c -0.0323,-3.5543 -0.0655,-9.110322 -0.0738,-12.346705 l -0.015,-5.884334 h 0.80434 0.80433 l 0.052,1.185334 c 0.0286,0.651933 0.0765,5.281083 0.10646,10.287 0.0299,5.005915 0.0754,9.997015 0.10111,11.091335 0.0257,1.09431 0.0159,2.0323 -0.0218,2.08441 -0.0893,0.12346 -1.28532,0.21864 -1.51868,0.12085 z m -124.78043,-0.33067 c -0.0247,-0.04 0.54797,-1.74498 1.27267,-3.78883 0.72469,-2.04385 1.51857,-4.28759 1.76416,-4.98609 2.26287,-6.435836 5.66287,-15.934602 5.7346,-16.021029 0.1235,-0.148804 1.70716,-0.150654 1.82652,-0.0021 0.0468,0.05821 1.10276,3.325283 2.34662,7.260167 1.24385,3.934883 2.3898,7.554382 2.54655,8.043332 1.6808,5.24309 2.9197,9.26757 2.88265,9.36411 -0.0346,0.0901 -0.2384,0.11855 -0.8495,0.11855 -0.67974,0 -0.816,-0.0229 -0.88156,-0.14816 -0.0427,-0.0815 -0.61942,-1.86267 -1.2817,-3.95817 -0.66227,-2.0955 -1.24298,-3.85762 -1.29046,-3.91583 -0.0672,-0.0823 -1.11893,-0.10584 -4.73694,-0.10584 h -4.65062 l -0.11358,0.27517 c -0.0625,0.15134 -0.69237,1.91347 -1.39978,3.91583 -0.70741,2.00237 -1.34103,3.7264 -1.40805,3.83117 -0.11222,0.17545 -0.18487,0.1905 -0.91924,0.1905 -0.43856,0 -0.81761,-0.0327 -0.84234,-0.0727 z m 13.44244,-9.98286 c 0.0331,-0.0535 -3.38633,-10.99782 -3.66548,-11.732047 -0.0472,-0.124122 -0.12007,-0.225675 -0.16195,-0.225675 -0.0419,0 -0.19916,0.352425 -0.3495,0.783167 -0.15034,0.430741 -1.08856,3.082283 -2.08494,5.892314 -0.99638,2.81003 -1.8116,5.162701 -1.8116,5.228171 0,0.10057 0.62243,0.11901 4.01667,0.11901 2.20916,0 4.03473,-0.0292 4.0568,-0.0649 z m 100.98655,6.21456 c -0.0688,-0.0829 -0.0898,-1.04817 -0.0739,-3.40783 l 0.0222,-3.29212 0.70671,-0.0247 c 0.4482,-0.0157 0.75016,0.0113 0.8255,0.0739 0.0982,0.0815 0.11879,0.66738 0.11879,3.38116 0,2.91517 -0.015,3.28833 -0.13392,3.33397 -0.26972,0.1035 -1.36604,0.0554 -1.46538,-0.0643 z m 4.06751,-9.941211 c -0.0537,-0.01788 -0.0975,-0.06738 -0.0975,-0.109981 0,-0.1268 1.70321,-2.448019 1.85237,-2.524495 0.22002,-0.112816 1.9367,-0.19563 1.99803,-0.09639 0.0806,0.130392 -1.73481,2.626313 -1.94113,2.668776 -0.24877,0.0512 -1.69563,0.100786 -1.81173,0.06209 z"
         id="path838" />
    </g>
  </g>
</svg>
