<svg width="487" height="65" viewBox="0 0 487 65" fill="none" xmlns="http://www.w3.org/2000/svg">
<path d="M276.205 43.4504H261.905L259.447 50.4287L254.82 47.0001L265.836 16.2252H272.323L283.334 47.0001L278.662 50.4287L276.205 43.4504ZM274.633 38.8801L269.079 23.0069L263.477 38.8801H274.633Z" fill="black"/>
<circle cx="268.5" cy="35.5" r="18.7429" stroke="#CC0000" stroke-width="3.51429"/>
<path d="M24.123 27.016C24.123 28.5353 23.7647 29.9687 23.048 31.316C22.3313 32.6633 21.1847 33.767 19.608 34.627C18.0313 35.4583 16.0103 35.874 13.545 35.874H8.127V48H3.225V18.115H13.545C15.8383 18.115 17.7733 18.5163 19.35 19.319C20.9553 20.093 22.145 21.1537 22.919 22.501C23.7217 23.8483 24.123 25.3533 24.123 27.016ZM13.545 31.875C15.4083 31.875 16.7987 31.4593 17.716 30.628C18.6333 29.768 19.092 28.564 19.092 27.016C19.092 23.748 17.243 22.114 13.545 22.114H8.127V31.875H13.545ZM33.7002 27.747C34.4169 26.543 35.3629 25.6113 36.5382 24.952C37.7422 24.264 39.1612 23.92 40.7952 23.92V28.994H39.5482C37.6276 28.994 36.1656 29.4813 35.1622 30.456C34.1876 31.4307 33.7002 33.122 33.7002 35.53V48H28.7982V24.307H33.7002V27.747ZM77.6241 27.833C78.4554 26.6863 79.5877 25.7547 81.0211 25.038C82.4831 24.2927 84.1027 23.92 85.8801 23.92C87.9727 23.92 89.8647 24.4217 91.5561 25.425C93.2474 26.4283 94.5804 27.8617 95.5551 29.725C96.5297 31.5597 97.0171 33.6667 97.0171 36.046C97.0171 38.4253 96.5297 40.561 95.5551 42.453C94.5804 44.3163 93.2331 45.7783 91.5131 46.839C89.8217 47.871 87.9441 48.387 85.8801 48.387C84.0454 48.387 82.4114 48.0287 80.9781 47.312C79.5734 46.5953 78.4554 45.678 77.6241 44.56V48H72.7221V16.18H77.6241V27.833ZM92.0291 36.046C92.0291 34.412 91.6851 33.0073 90.9971 31.832C90.3377 30.628 89.4491 29.725 88.3311 29.123C87.2417 28.4923 86.0664 28.177 84.8051 28.177C83.5724 28.177 82.3971 28.4923 81.2791 29.123C80.1897 29.7537 79.3011 30.671 78.6131 31.875C77.9537 33.079 77.6241 34.498 77.6241 36.132C77.6241 37.766 77.9537 39.1993 78.6131 40.432C79.3011 41.636 80.1897 42.5533 81.2791 43.184C82.3971 43.8147 83.5724 44.13 84.8051 44.13C86.0664 44.13 87.2417 43.8147 88.3311 43.184C89.4491 42.5247 90.3377 41.5787 90.9971 40.346C91.6851 39.1133 92.0291 37.68 92.0291 36.046ZM106.767 16.18V48H101.865V16.18H106.767ZM134.918 35.573C134.918 36.4617 134.86 37.2643 134.746 37.981H116.643C116.786 39.873 117.488 41.3923 118.75 42.539C120.011 43.6857 121.559 44.259 123.394 44.259C126.031 44.259 127.894 43.1553 128.984 40.948H134.273C133.556 43.1267 132.252 44.9183 130.36 46.323C128.496 47.699 126.174 48.387 123.394 48.387C121.129 48.387 119.094 47.8853 117.288 46.882C115.51 45.85 114.106 44.4167 113.074 42.582C112.07 40.7187 111.569 38.5687 111.569 36.132C111.569 33.6953 112.056 31.5597 113.031 29.725C114.034 27.8617 115.424 26.4283 117.202 25.425C119.008 24.4217 121.072 23.92 123.394 23.92C125.63 23.92 127.622 24.4073 129.371 25.382C131.119 26.3567 132.481 27.7327 133.456 29.51C134.43 31.2587 134.918 33.2797 134.918 35.573ZM129.801 34.025C129.772 32.219 129.127 30.7713 127.866 29.682C126.604 28.5927 125.042 28.048 123.179 28.048C121.487 28.048 120.04 28.5927 118.836 29.682C117.632 30.7427 116.915 32.1903 116.686 34.025H129.801ZM168.423 23.92C170.286 23.92 171.949 24.307 173.411 25.081C174.901 25.855 176.062 27.0017 176.894 28.521C177.754 30.0403 178.184 31.875 178.184 34.025V48H173.325V34.756C173.325 32.6347 172.794 31.015 171.734 29.897C170.673 28.7503 169.225 28.177 167.391 28.177C165.556 28.177 164.094 28.7503 163.005 29.897C161.944 31.015 161.414 32.6347 161.414 34.756V48H156.555V34.756C156.555 32.6347 156.024 31.015 154.964 29.897C153.903 28.7503 152.455 28.177 150.621 28.177C148.786 28.177 147.324 28.7503 146.235 29.897C145.174 31.015 144.644 32.6347 144.644 34.756V48H139.742V24.307H144.644V27.016C145.446 26.0413 146.464 25.2817 147.697 24.737C148.929 24.1923 150.248 23.92 151.653 23.92C153.545 23.92 155.236 24.3213 156.727 25.124C158.217 25.9267 159.364 27.0877 160.167 28.607C160.883 27.1737 162.001 26.0413 163.521 25.21C165.04 24.35 166.674 23.92 168.423 23.92ZM205.868 48.387C203.632 48.387 201.611 47.8853 199.805 46.882C197.999 45.85 196.58 44.4167 195.548 42.582C194.516 40.7187 194 38.5687 194 36.132C194 33.724 194.531 31.5883 195.591 29.725C196.652 27.8617 198.1 26.4283 199.934 25.425C201.769 24.4217 203.819 23.92 206.083 23.92C208.348 23.92 210.398 24.4217 212.232 25.425C214.067 26.4283 215.515 27.8617 216.575 29.725C217.636 31.5883 218.166 33.724 218.166 36.132C218.166 38.54 217.622 40.6757 216.532 42.539C215.443 44.4023 213.952 45.85 212.06 46.882C210.197 47.8853 208.133 48.387 205.868 48.387ZM205.868 44.13C207.13 44.13 208.305 43.829 209.394 43.227C210.512 42.625 211.415 41.722 212.103 40.518C212.791 39.314 213.135 37.852 213.135 36.132C213.135 34.412 212.806 32.9643 212.146 31.789C211.487 30.585 210.613 29.682 209.523 29.08C208.434 28.478 207.259 28.177 205.997 28.177C204.736 28.177 203.561 28.478 202.471 29.08C201.411 29.682 200.565 30.585 199.934 31.789C199.304 32.9643 198.988 34.412 198.988 36.132C198.988 38.6833 199.633 40.6613 200.923 42.066C202.242 43.442 203.89 44.13 205.868 44.13ZM232.945 28.306H228.559V48H223.614V28.306H220.819V24.307H223.614V22.63C223.614 19.9067 224.331 17.9287 225.764 16.696C227.226 15.4347 229.505 14.804 232.601 14.804V18.889C231.11 18.889 230.064 19.1757 229.462 19.749C228.86 20.2937 228.559 21.254 228.559 22.63V24.307H232.945V28.306ZM298.041 27.79C298.872 26.7007 300.005 25.7833 301.438 25.038C302.871 24.2927 304.491 23.92 306.297 23.92C308.361 23.92 310.239 24.436 311.93 25.468C313.65 26.4713 314.997 27.8903 315.972 29.725C316.947 31.5597 317.434 33.6667 317.434 36.046C317.434 38.4253 316.947 40.561 315.972 42.453C314.997 44.3163 313.65 45.7783 311.93 46.839C310.239 47.871 308.361 48.387 306.297 48.387C304.491 48.387 302.886 48.0287 301.481 47.312C300.076 46.5667 298.93 45.6493 298.041 44.56V59.266H293.139V24.307H298.041V27.79ZM312.446 36.046C312.446 34.412 312.102 33.0073 311.414 31.832C310.755 30.628 309.866 29.725 308.748 29.123C307.659 28.4923 306.483 28.177 305.222 28.177C303.989 28.177 302.814 28.4923 301.696 29.123C300.607 29.7537 299.718 30.671 299.03 31.875C298.371 33.079 298.041 34.498 298.041 36.132C298.041 37.766 298.371 39.1993 299.03 40.432C299.718 41.636 300.607 42.5533 301.696 43.184C302.814 43.8147 303.989 44.13 305.222 44.13C306.483 44.13 307.659 43.8147 308.748 43.184C309.866 42.5247 310.755 41.5787 311.414 40.346C312.102 39.1133 312.446 37.68 312.446 36.046ZM354.605 16.18V48H349.703V16.18H354.605ZM365.942 16.18V48H361.04V16.18H365.942ZM411.753 23.92C413.617 23.92 415.279 24.307 416.741 25.081C418.232 25.855 419.393 27.0017 420.224 28.521C421.056 30.0403 421.471 31.875 421.471 34.025V48H416.612V34.756C416.612 32.6347 416.082 31.015 415.021 29.897C413.961 28.7503 412.513 28.177 410.678 28.177C408.844 28.177 407.382 28.7503 406.292 29.897C405.232 31.015 404.701 32.6347 404.701 34.756V48H399.799V24.307H404.701V27.016C405.504 26.0413 406.522 25.2817 407.754 24.737C409.016 24.1923 410.349 23.92 411.753 23.92ZM430.218 21.168C429.329 21.168 428.584 20.867 427.982 20.265C427.38 19.663 427.079 18.9177 427.079 18.029C427.079 17.1403 427.38 16.395 427.982 15.793C428.584 15.191 429.329 14.89 430.218 14.89C431.078 14.89 431.809 15.191 432.411 15.793C433.013 16.395 433.314 17.1403 433.314 18.029C433.314 18.9177 433.013 19.663 432.411 20.265C431.809 20.867 431.078 21.168 430.218 21.168ZM432.626 24.307V48H427.724V24.307H432.626ZM460.519 24.307V48H455.617V45.205C454.843 46.1797 453.825 46.9537 452.564 47.527C451.331 48.0717 450.013 48.344 448.608 48.344C446.745 48.344 445.068 47.957 443.577 47.183C442.115 46.409 440.954 45.2623 440.094 43.743C439.263 42.2237 438.847 40.389 438.847 38.239V24.307H443.706V37.508C443.706 39.6293 444.236 41.2633 445.297 42.41C446.358 43.528 447.805 44.087 449.64 44.087C451.475 44.087 452.922 43.528 453.983 42.41C455.072 41.2633 455.617 39.6293 455.617 37.508V24.307H460.519ZM475.587 48.387C473.723 48.387 472.046 48.0573 470.556 47.398C469.094 46.71 467.933 45.7927 467.073 44.646C466.213 43.4707 465.754 42.1663 465.697 40.733H470.771C470.857 41.7363 471.33 42.582 472.19 43.27C473.078 43.9293 474.182 44.259 475.501 44.259C476.877 44.259 477.937 44.001 478.683 43.485C479.457 42.9403 479.844 42.2523 479.844 41.421C479.844 40.5323 479.414 39.873 478.554 39.443C477.722 39.013 476.389 38.54 474.555 38.024C472.777 37.5367 471.33 37.0637 470.212 36.605C469.094 36.1463 468.119 35.444 467.288 34.498C466.485 33.552 466.084 32.305 466.084 30.757C466.084 29.4957 466.456 28.349 467.202 27.317C467.947 26.2563 469.008 25.425 470.384 24.823C471.788 24.221 473.394 23.92 475.2 23.92C477.894 23.92 480.059 24.608 481.693 25.984C483.355 27.3313 484.244 29.1803 484.359 31.531H479.457C479.371 30.4703 478.941 29.6247 478.167 28.994C477.393 28.3633 476.346 28.048 475.028 28.048C473.738 28.048 472.749 28.2917 472.061 28.779C471.373 29.2663 471.029 29.9113 471.029 30.714C471.029 31.3447 471.258 31.875 471.717 32.305C472.175 32.735 472.734 33.079 473.394 33.337C474.053 33.5663 475.028 33.8673 476.318 34.24C478.038 34.6987 479.442 35.1717 480.532 35.659C481.65 36.1177 482.61 36.8057 483.413 37.723C484.215 38.6403 484.631 39.8587 484.66 41.378C484.66 42.7253 484.287 43.9293 483.542 44.99C482.796 46.0507 481.736 46.882 480.36 47.484C479.012 48.086 477.421 48.387 475.587 48.387Z" fill="black"/>
<path d="M55.5782 48.387C53.3422 48.387 51.3212 47.8853 49.5152 46.882C47.7092 45.85 46.2902 44.4167 45.2582 42.582C44.2262 40.7187 43.7102 38.5687 43.7102 36.132C43.7102 33.724 44.2405 31.5883 45.3012 29.725C46.3618 27.8617 47.8095 26.4283 49.6442 25.425C51.4788 24.4217 53.5285 23.92 55.7932 23.92C58.0578 23.92 60.1075 24.4217 61.9422 25.425C63.7768 26.4283 65.2245 27.8617 66.2852 29.725C67.3458 31.5883 67.8762 33.724 67.8762 36.132C67.8762 38.54 67.3315 40.6757 66.2422 42.539C65.1528 44.4023 63.6622 45.85 61.7702 46.882C59.9068 47.8853 57.8428 48.387 55.5782 48.387ZM55.5782 44.13C56.8395 44.13 58.0148 43.829 59.1042 43.227C60.2222 42.625 61.1252 41.722 61.8132 40.518C62.5012 39.314 62.8452 37.852 62.8452 36.132C62.8452 34.412 62.5155 32.9643 61.8562 31.789C61.1968 30.585 60.3225 29.682 59.2332 29.08C58.1438 28.478 56.9685 28.177 55.7072 28.177C54.4458 28.177 53.2705 28.478 52.1812 29.08C51.1205 29.682 50.2748 30.585 49.6442 31.789C49.0135 32.9643 48.6982 34.412 48.6982 36.132C48.6982 38.6833 49.3432 40.6613 50.6332 42.066C51.9518 43.442 53.6002 44.13 55.5782 44.13ZM332.559 48.387C330.323 48.387 328.302 47.8853 326.496 46.882C324.69 45.85 323.271 44.4167 322.239 42.582C321.207 40.7187 320.691 38.5687 320.691 36.132C320.691 33.724 321.221 31.5883 322.282 29.725C323.342 27.8617 324.79 26.4283 326.625 25.425C328.459 24.4217 330.509 23.92 332.774 23.92C335.038 23.92 337.088 24.4217 338.923 25.425C340.757 26.4283 342.205 27.8617 343.266 29.725C344.326 31.5883 344.857 33.724 344.857 36.132C344.857 38.54 344.312 40.6757 343.223 42.539C342.133 44.4023 340.643 45.85 338.751 46.882C336.887 47.8853 334.823 48.387 332.559 48.387ZM332.559 44.13C333.82 44.13 334.995 43.829 336.085 43.227C337.203 42.625 338.106 41.722 338.794 40.518C339.482 39.314 339.826 37.852 339.826 36.132C339.826 34.412 339.496 32.9643 338.837 31.789C338.177 30.585 337.303 29.682 336.214 29.08C335.124 28.478 333.949 28.177 332.688 28.177C331.426 28.177 330.251 28.478 329.162 29.08C328.101 29.682 327.255 30.585 326.625 31.789C325.994 32.9643 325.679 34.412 325.679 36.132C325.679 38.6833 326.324 40.6613 327.614 42.066C328.932 43.442 330.581 44.13 332.559 44.13ZM382.655 48.387C380.419 48.387 378.398 47.8853 376.592 46.882C374.786 45.85 373.367 44.4167 372.335 42.582C371.303 40.7187 370.787 38.5687 370.787 36.132C370.787 33.724 371.318 31.5883 372.378 29.725C373.439 27.8617 374.887 26.4283 376.721 25.425C378.556 24.4217 380.606 23.92 382.87 23.92C385.135 23.92 387.185 24.4217 389.019 25.425C390.854 26.4283 392.302 27.8617 393.362 29.725C394.423 31.5883 394.953 33.724 394.953 36.132C394.953 38.54 394.409 40.6757 393.319 42.539C392.23 44.4023 390.739 45.85 388.847 46.882C386.984 47.8853 384.92 48.387 382.655 48.387ZM382.655 44.13C383.917 44.13 385.092 43.829 386.181 43.227C387.299 42.625 388.202 41.722 388.89 40.518C389.578 39.314 389.922 37.852 389.922 36.132C389.922 34.412 389.593 32.9643 388.933 31.789C388.274 30.585 387.4 29.682 386.31 29.08C385.221 28.478 384.046 28.177 382.784 28.177C381.523 28.177 380.348 28.478 379.258 29.08C378.198 29.682 377.352 30.585 376.721 31.789C376.091 32.9643 375.775 34.412 375.775 36.132C375.775 38.6833 376.42 40.6613 377.71 42.066C379.029 43.442 380.677 44.13 382.655 44.13Z" fill="#CC0000"/>
</svg>
