<?xml version="1.0" encoding="UTF-8" standalone="no"?>
<!-- Created with Inkscape (http://www.inkscape.org/) -->

<svg
   width="144.49779mm"
   height="94.868469mm"
   viewBox="0 0 144.49779 94.868469"
   version="1.1"
   id="svg4352"
   inkscape:version="1.1.1 (3bf5ae0d25, 2021-09-20)"
   sodipodi:docname="united-states.svg"
   xmlns:inkscape="http://www.inkscape.org/namespaces/inkscape"
   xmlns:sodipodi="http://sodipodi.sourceforge.net/DTD/sodipodi-0.dtd"
   xmlns="http://www.w3.org/2000/svg"
   xmlns:svg="http://www.w3.org/2000/svg">
  <sodipodi:namedview
     id="namedview4354"
     pagecolor="#ffffff"
     bordercolor="#666666"
     borderopacity="1.0"
     inkscape:pageshadow="2"
     inkscape:pageopacity="0.0"
     inkscape:pagecheckerboard="0"
     inkscape:document-units="mm"
     showgrid="false"
     inkscape:zoom="0.7500982"
     inkscape:cx="224.63725"
     inkscape:cy="-2.6663175"
     inkscape:window-width="1920"
     inkscape:window-height="1046"
     inkscape:window-x="-11"
     inkscape:window-y="-11"
     inkscape:window-maximized="1"
     inkscape:current-layer="layer1" />
  <defs
     id="defs4349" />
  <g
     inkscape:label="Ebene 1"
     inkscape:groupmode="layer"
     id="layer1"
     transform="translate(-45.652569,-149.14415)">
    <g
       id="g4425"
       transform="translate(-65.518971,119.66222)">
      <path
         style="fill:#fd4c56;stroke-width:0.282222"
         d="m 112.65106,123.88716 c -1.20373,-0.52315 -1.47952,-1.34232 -1.47952,-4.39449 v -2.52163 h 72.24888 72.24889 v 2.52163 c 0,3.10373 -0.26986,3.8752 -1.54136,4.40646 -1.45871,0.60949 -140.07395,0.59776 -141.47689,-0.012 z m -1.47952,-17.92279 v -3.66889 h 72.24888 72.24889 v 3.66889 3.66889 h -72.24889 -72.24888 z m 0,-14.39333 v -3.668888 h 72.24888 72.24889 v 3.668888 3.668889 h -72.24889 -72.24888 z m 0.82496,-11.831624 -0.82496,-0.824955 v -23.74693 c 0,-15.747375 0.0979,-23.929837 0.29059,-24.289898 0.7924,-1.480609 -3.66791,-1.394005 71.81181,-1.394345 76.16895,-3.43e-4 71.48487,-0.101397 72.11494,1.555811 0.15424,0.405668 0.28043,1.87231 0.28043,3.259206 v 2.521627 h -38.49314 c -34.84036,0 -38.50939,0.04236 -38.66444,0.446417 -0.22279,0.580596 -0.22279,5.864348 0,6.444944 0.15505,0.404055 3.82408,0.446417 38.66444,0.446417 h 38.49314 v 3.667884 3.667884 l -38.59389,0.07156 -38.59388,0.07156 v 3.386667 3.386666 l 38.59388,0.07156 38.59389,0.07156 v 3.667884 3.667884 h -38.34766 c -32.43508,0 -38.39798,0.06062 -38.67397,0.393172 -0.21599,0.260248 -0.29923,1.476784 -0.24622,3.598333 l 0.0801,3.205161 38.59388,0.07156 38.59389,0.07156 v 3.667884 3.667884 H 184.2454 112.82147 Z m 5.94837,-5.438698 c 0.23284,0 0.70886,0.09058 1.05784,0.201281 0.57975,0.183913 0.62027,0.130124 0.46956,-0.623424 -0.1133,-0.566504 -0.0248,-0.941024 0.28272,-1.196232 0.68088,-0.565077 0.54625,-1.149079 -0.26488,-1.149079 -0.50036,0 -0.79242,-0.210101 -0.98079,-0.705556 -0.14754,-0.388055 -0.40154,-0.705555 -0.56445,-0.705555 -0.1629,0 -0.4169,0.3175 -0.56444,0.705555 -0.18837,0.495455 -0.48043,0.705556 -0.98079,0.705556 -0.81114,0 -0.94576,0.584002 -0.26488,1.149079 0.3075,0.255208 0.39602,0.629728 0.28272,1.196232 -0.15071,0.753548 -0.1102,0.807337 0.46956,0.623424 0.34897,-0.110705 0.825,-0.201281 1.05783,-0.201281 z m 12.91812,0.006 c 0.2532,-0.253201 0.50179,-0.253201 1.05751,0 0.99184,0.451911 0.98215,0.458476 0.98215,-0.665627 0,-0.625551 0.15762,-1.057122 0.42333,-1.159084 0.70106,-0.269019 0.47679,-0.905083 -0.35277,-1.000537 -0.47968,-0.05519 -0.88252,-0.331836 -1.05471,-0.7243 -0.3554,-0.810099 -0.53713,-0.798511 -1.10656,0.07055 -0.25427,0.388056 -0.70588,0.705556 -1.00358,0.705556 -0.79268,0 -0.92046,0.419373 -0.2991,0.98169 0.39571,0.358112 0.49988,0.715301 0.3814,1.307719 -0.17482,0.874067 0.33066,1.125694 0.97233,0.484025 z m 13.46403,0 c 0.55572,-0.253201 0.80431,-0.253201 1.05751,0 0.63244,0.632446 1.12264,0.390212 0.93541,-0.462241 -0.1291,-0.58777 -0.027,-0.926512 0.39425,-1.307716 0.68277,-0.6179 0.51769,-1.003477 -0.42963,-1.003477 -0.48259,0 -0.7781,-0.216253 -0.96413,-0.705556 -0.14754,-0.388055 -0.37801,-0.705555 -0.51216,-0.705555 -0.13415,0 -0.38857,0.3175 -0.56538,0.705555 -0.21918,0.481048 -0.54791,0.705556 -1.03308,0.705556 -0.78858,0 -1.00016,0.753654 -0.28827,1.026828 0.2612,0.100234 0.42333,0.529195 0.42333,1.120033 0,1.08217 -0.007,1.077445 0.98215,0.626573 z m 13.34708,0 c 0.2532,-0.253201 0.50179,-0.253201 1.05751,0 0.99184,0.451914 0.98215,0.458478 0.98215,-0.665624 0,-0.625551 0.15762,-1.057123 0.42333,-1.159084 0.69872,-0.268125 0.49192,-0.948726 -0.28827,-0.948726 -0.48517,0 -0.8139,-0.224508 -1.03308,-0.705556 -0.17681,-0.388055 -0.43081,-0.705555 -0.56444,-0.705555 -0.13364,0 -0.38764,0.3175 -0.56445,0.705555 -0.2061,0.452354 -0.55244,0.705556 -0.96507,0.705556 -0.8982,0 -1.04749,0.397002 -0.37734,1.003477 0.42123,0.381204 0.52335,0.719946 0.39425,1.307716 -0.18722,0.852453 0.30297,1.094687 0.93541,0.462241 z m 13.46403,0 c 0.55572,-0.253201 0.80431,-0.253201 1.05751,0 0.63244,0.632446 1.12264,0.390212 0.93541,-0.462241 -0.1291,-0.58777 -0.027,-0.926512 0.39425,-1.307716 0.64303,-0.581939 0.5275,-1.00348 -0.27502,-1.00348 -0.29771,0 -0.74932,-0.3175 -1.00359,-0.705556 -0.25426,-0.388055 -0.5543,-0.705555 -0.66675,-0.705555 -0.11246,0 -0.34913,0.3175 -0.52594,0.705555 -0.21918,0.481048 -0.54791,0.705556 -1.03308,0.705556 -0.78019,0 -0.98699,0.680601 -0.28827,0.948726 0.26571,0.101962 0.42333,0.533533 0.42333,1.159084 0,1.124103 -0.01,1.117538 0.98215,0.665624 z m -44.53577,-6.212876 c 0.48748,-0.541114 0.28437,-1.076117 -0.40854,-1.076117 -0.25665,0 -0.74695,-0.34925 -1.08955,-0.776111 l -0.62292,-0.776111 -0.28283,0.73642 c -0.19606,0.510486 -0.56377,0.792607 -1.19856,0.919564 l -0.91574,0.183148 0.62605,0.666403 c 0.46502,0.49499 0.57813,0.857355 0.43973,1.408769 -0.19907,0.793171 0.0989,0.94442 0.9564,0.48549 0.31463,-0.168385 0.72143,-0.126772 1.18089,0.120802 0.67369,0.363006 0.70451,0.342832 0.79354,-0.519238 0.0509,-0.493302 0.28563,-1.11116 0.52153,-1.373019 z m 25.60435,1.964148 c 0.82988,0.378118 1.05794,0.188676 0.83624,-0.694645 -0.10949,-0.436242 0.002,-0.864385 0.31501,-1.210319 0.54962,-0.607331 0.3628,-1.135301 -0.40173,-1.135301 -0.28343,0 -0.73741,-0.338931 -1.00884,-0.753183 l -0.4935,-0.753186 -0.39464,0.753186 c -0.21757,0.415262 -0.63635,0.753183 -0.9334,0.753183 -0.7859,0 -0.98104,0.521076 -0.42518,1.135301 0.31307,0.345934 0.4245,0.774077 0.31501,1.210319 -0.2217,0.883321 0.006,1.072763 0.83624,0.694645 0.49025,-0.223376 0.86454,-0.223376 1.35479,0 z m -14.08295,-0.258928 c 0.15522,0 0.58669,0.0924 0.95881,0.205345 0.61923,0.18794 0.66092,0.142926 0.49176,-0.531032 -0.13916,-0.554474 -0.0284,-0.882128 0.44853,-1.326422 0.53789,-0.501119 0.57011,-0.630024 0.21379,-0.855314 -0.23076,-0.1459 -0.64181,-0.267216 -0.91344,-0.269593 -0.27164,-0.0023 -0.49389,-0.107047 -0.49389,-0.232602 0,-0.125555 -0.17934,-0.473535 -0.39852,-0.773291 -0.38459,-0.525955 -0.41085,-0.517971 -0.75086,0.228281 -0.19379,0.425311 -0.5542,0.775236 -0.80092,0.777612 -0.24673,0.0023 -0.63404,0.121624 -0.8607,0.264993 -0.35552,0.224874 -0.34583,0.333914 0.0705,0.794012 0.26547,0.293339 0.48267,0.887403 0.48267,1.320145 0,0.685419 0.0818,0.761746 0.635,0.592337 0.34925,-0.10696 0.762,-0.194471 0.91722,-0.194471 z m 26.81111,0 c 0.15522,0 0.57939,0.0905 0.9426,0.201109 0.5848,0.178088 0.64962,0.11897 0.56635,-0.516475 -0.0557,-0.42494 0.1308,-0.966024 0.45729,-1.326783 0.46994,-0.519286 0.49049,-0.647675 0.13921,-0.869874 -0.22667,-0.143369 -0.63437,-0.262616 -0.90601,-0.264993 -0.27163,-0.0023 -0.49388,-0.107047 -0.49388,-0.232602 0,-0.125555 -0.17934,-0.473535 -0.39852,-0.773291 -0.38459,-0.525955 -0.41085,-0.517971 -0.75086,0.228281 -0.19379,0.425311 -0.5542,0.775236 -0.80093,0.777612 -0.24672,0.0023 -0.63738,0.123693 -0.86813,0.269593 -0.35632,0.22529 -0.32411,0.354195 0.21378,0.855314 0.4769,0.444294 0.58769,0.771948 0.44853,1.326422 -0.16916,0.673958 -0.12747,0.718972 0.49176,0.531032 0.37212,-0.11294 0.80359,-0.205345 0.95881,-0.205345 z M 117.60621,65.55017 c 0.2634,-0.263406 0.41392,-0.263406 0.67733,0 0.18627,0.186267 0.56969,0.338667 0.85204,0.338667 0.40885,0 0.47674,-0.145974 0.33344,-0.716927 -0.12111,-0.482566 -0.0216,-0.891915 0.30449,-1.252217 0.55979,-0.618555 0.35941,-1.135301 -0.44023,-1.135301 -0.31689,0 -0.69138,-0.301862 -0.87531,-0.705555 -0.17681,-0.388056 -0.40771,-0.705556 -0.5131,-0.705556 -0.10539,0 -0.33628,0.3175 -0.51309,0.705556 -0.18394,0.403693 -0.55842,0.705555 -0.87531,0.705555 -0.79964,0 -1.00002,0.516746 -0.44024,1.135301 0.32607,0.360302 0.42561,0.769651 0.30449,1.252217 -0.1433,0.570953 -0.0754,0.716927 0.33344,0.716927 0.28236,0 0.66578,-0.1524 0.85205,-0.338667 z m 13.74422,0.01555 c 0.15522,0 0.56797,0.08751 0.91722,0.194471 0.55317,0.16941 0.635,0.09308 0.635,-0.592336 0,-0.432743 0.20294,-1.011053 0.45098,-1.285133 0.5616,-0.620553 0.2968,-1.09833 -0.60875,-1.09833 -0.37889,0 -0.6889,-0.102726 -0.6889,-0.228281 0,-0.125555 -0.17933,-0.473535 -0.39852,-0.773291 -0.38458,-0.525955 -0.41084,-0.517971 -0.75085,0.228281 -0.19379,0.425311 -0.5542,0.775236 -0.80093,0.777612 -0.24672,0.0023 -0.63738,0.123693 -0.86814,0.269593 -0.35632,0.225289 -0.3241,0.354194 0.21379,0.855314 0.47689,0.444294 0.58769,0.771948 0.44852,1.326422 -0.16915,0.673958 -0.12747,0.718972 0.49177,0.531032 0.37212,-0.11294 0.80359,-0.205345 0.95881,-0.205345 z m 13.54666,0 c 0.15523,0 0.57454,0.08923 0.93182,0.198287 0.59218,0.18076 0.63278,0.131295 0.45938,-0.559627 -0.14395,-0.573529 -0.0331,-0.925186 0.45573,-1.4455 l 0.64595,-0.687586 -0.91574,-0.183148 c -0.63479,-0.126958 -1.00251,-0.409079 -1.19857,-0.919565 l -0.28283,-0.736419 -0.62291,0.776111 c -0.34261,0.426861 -0.8329,0.776111 -1.08955,0.776111 -0.70395,0 -0.89335,0.538257 -0.38648,1.098338 0.24804,0.27408 0.45098,0.85239 0.45098,1.285133 0,0.685419 0.0818,0.761746 0.635,0.592336 0.34925,-0.106959 0.762,-0.194471 0.91722,-0.194471 z m 13.26445,0 c 0.15522,0 0.56797,0.08751 0.91722,0.194471 0.55317,0.16941 0.635,0.09308 0.635,-0.592336 0,-0.432743 0.20294,-1.011053 0.45098,-1.285133 0.52247,-0.577322 0.3118,-1.098338 -0.4441,-1.098338 -0.28833,0 -0.77937,-0.34925 -1.0912,-0.776111 l -0.56695,-0.776111 -0.28118,0.736419 c -0.19514,0.511082 -0.56138,0.792457 -1.19691,0.919565 l -0.91574,0.183148 0.62605,0.666403 c 0.47942,0.510317 0.57984,0.850536 0.42874,1.452558 -0.18299,0.729107 -0.14821,0.771254 0.47928,0.58081 0.37212,-0.112939 0.80359,-0.205345 0.95881,-0.205345 z m 13.54666,0 c 0.15523,0 0.58669,0.09241 0.95881,0.205345 0.61924,0.187941 0.66092,0.142926 0.49177,-0.531032 -0.13917,-0.554473 -0.0284,-0.882128 0.44852,-1.326422 0.53789,-0.501119 0.57011,-0.630024 0.21379,-0.855314 -0.23076,-0.1459 -0.64495,-0.267216 -0.92043,-0.269592 -0.28411,-0.0025 -0.62911,-0.340197 -0.79719,-0.780432 -0.2862,-0.749596 -0.31006,-0.757397 -0.69857,-0.228281 -0.22124,0.301306 -0.40225,0.650556 -0.40225,0.776111 0,0.125555 -0.31001,0.228281 -0.6889,0.228281 -0.90554,0 -1.17035,0.477777 -0.60875,1.098338 0.24804,0.27408 0.45098,0.85239 0.45098,1.285133 0,0.685419 0.0818,0.761746 0.635,0.592336 0.34925,-0.106959 0.762,-0.194471 0.91722,-0.194471 z M 124.61457,61.1693 c 0.33105,-0.07227 0.6878,0.0076 0.79277,0.177404 0.37381,0.604851 0.72198,0.29409 0.72198,-0.644423 0,-0.52427 0.1905,-1.11132 0.42333,-1.304555 0.62656,-0.52 0.51534,-0.846667 -0.28827,-0.846667 -0.48517,0 -0.8139,-0.224508 -1.03308,-0.705555 -0.17681,-0.388056 -0.41348,-0.705556 -0.52594,-0.705556 -0.11245,0 -0.41249,0.3175 -0.66676,0.705556 -0.25426,0.388055 -0.70587,0.705555 -1.00358,0.705555 -0.80252,0 -0.91806,0.421541 -0.27502,1.003478 0.43209,0.391036 0.52444,0.714951 0.38495,1.350086 -0.16179,0.736592 -0.12125,0.809577 0.34208,0.615848 0.28909,-0.120875 0.79648,-0.278903 1.12754,-0.351171 z m 12.67895,0.177404 c 0.19131,-0.309547 0.92592,-0.241621 1.93333,0.178763 0.47925,0.199988 0.51962,0.129684 0.36615,-0.637633 -0.12938,-0.646924 -0.0348,-0.987008 0.37859,-1.361107 0.74721,-0.676222 0.69342,-0.921794 -0.22505,-1.027478 -0.47968,-0.05519 -0.88252,-0.331837 -1.0547,-0.724301 -0.36481,-0.831528 -0.82333,-0.805058 -1.22228,0.07056 -0.21918,0.481047 -0.54791,0.705555 -1.03308,0.705555 -0.80361,0 -0.91484,0.326667 -0.28827,0.846667 0.23283,0.193235 0.42333,0.780285 0.42333,1.304555 0,0.938513 0.34816,1.249274 0.72198,0.644423 z m 13.67518,-0.04131 c 0.44772,-0.279603 0.6766,-0.277679 1.13654,0.0096 0.77736,0.48547 1.04814,0.252408 0.89769,-0.772662 -0.0893,-0.608725 0.006,-0.906244 0.32927,-1.030399 0.72757,-0.279191 0.52616,-0.876026 -0.35509,-1.052277 -0.49616,-0.09923 -0.86864,-0.386266 -0.96136,-0.740833 -0.20232,-0.773679 -0.60473,-0.729948 -1.16604,0.12672 -0.25426,0.388056 -0.71337,0.705556 -1.02023,0.705556 -0.67091,0 -0.74532,0.714375 -0.1002,0.961929 0.33372,0.128064 0.4139,0.394837 0.29594,0.984653 -0.23075,1.153759 0.0308,1.37771 0.94348,0.807751 z m 13.96617,-0.02448 c 0.31044,0 0.78669,0.09787 1.05833,0.217489 0.41749,0.183843 0.49389,0.06536 0.49389,-0.765931 0,-0.540879 0.1905,-1.141515 0.42334,-1.33475 0.62656,-0.52 0.51533,-0.846667 -0.28828,-0.846667 -0.48517,0 -0.81389,-0.224508 -1.03307,-0.705555 -0.39896,-0.875614 -0.85747,-0.902084 -1.22229,-0.07056 -0.17218,0.392464 -0.57502,0.66911 -1.0547,0.724301 -0.91847,0.105684 -0.97226,0.351256 -0.22505,1.027478 0.41338,0.374099 0.50797,0.714183 0.37859,1.361107 -0.15392,0.769563 -0.1145,0.837141 0.36616,0.627744 0.29625,-0.129063 0.79264,-0.23466 1.10308,-0.23466 z m -47.55061,-4.208858 c 0.44772,-0.279604 0.67659,-0.277679 1.13654,0.0096 0.78731,0.491688 1.13132,0.198473 0.93264,-0.794935 -0.12256,-0.61282 -0.0459,-0.877556 0.29147,-1.007031 0.63669,-0.244326 0.57465,-0.961935 -0.0832,-0.961935 -0.2975,0 -0.8055,-0.34925 -1.12889,-0.776111 l -0.58799,-0.776111 -0.58798,0.776111 c -0.32339,0.426861 -0.83139,0.776111 -1.12889,0.776111 -0.65781,0 -0.71985,0.717609 -0.0832,0.961929 0.33372,0.128064 0.4139,0.394837 0.29594,0.984654 -0.23075,1.153758 0.0308,1.37771 0.94348,0.807751 z m 14.00364,-0.136094 c 0.33106,-0.07227 0.6878,0.0076 0.79277,0.177405 0.37382,0.604851 0.72198,0.29409 0.72198,-0.644423 0,-0.52427 0.1905,-1.111321 0.42333,-1.304555 0.62657,-0.52 0.51534,-0.846667 -0.28827,-0.846667 -0.48517,0 -0.8139,-0.224508 -1.03308,-0.705555 -0.39896,-0.875615 -0.85747,-0.902084 -1.22228,-0.07056 -0.17218,0.392464 -0.57502,0.669109 -1.0547,0.724301 -0.91848,0.105684 -0.97226,0.351256 -0.22505,1.027478 0.41338,0.374099 0.50797,0.714183 0.37858,1.361107 -0.15346,0.767317 -0.11309,0.837621 0.36616,0.637633 0.29626,-0.123625 0.80951,-0.283899 1.14056,-0.356168 z m 12.67895,0.177405 c 0.19053,-0.308285 0.92674,-0.241667 1.92031,0.173767 0.46332,0.193729 0.50387,0.120744 0.34208,-0.615848 -0.1395,-0.635135 -0.0471,-0.95905 0.38495,-1.350086 0.64303,-0.581937 0.5275,-1.003478 -0.27502,-1.003478 -0.29771,0 -0.74932,-0.3175 -1.00358,-0.705555 -0.561,-0.856189 -0.8647,-0.891735 -1.10662,-0.129515 -0.10853,0.341943 -0.51768,0.643009 -1.0068,0.740833 -0.92222,0.184444 -1.02403,0.423531 -0.40063,0.940904 0.23283,0.193234 0.42333,0.780285 0.42333,1.304555 0,0.938513 0.34817,1.249274 0.72198,0.644423 z m 14.13216,-0.177405 c 0.33106,-0.07227 0.6878,0.0076 0.79277,0.177405 0.37382,0.604851 0.72198,0.29409 0.72198,-0.644423 0,-0.52427 0.1905,-1.111321 0.42333,-1.304555 0.62656,-0.52 0.51534,-0.846667 -0.28827,-0.846667 -0.48517,0 -0.8139,-0.224508 -1.03308,-0.705555 -0.17681,-0.388056 -0.41348,-0.705556 -0.52594,-0.705556 -0.11245,0 -0.41249,0.3175 -0.66675,0.705556 -0.28717,0.438265 -0.72713,0.705555 -1.16135,0.705555 -0.84952,0 -0.88758,0.306347 -0.12392,0.997452 0.43859,0.396912 0.53156,0.718894 0.39161,1.356112 -0.16178,0.736592 -0.12124,0.809577 0.34208,0.615848 0.2891,-0.120875 0.79649,-0.278903 1.12754,-0.351172 z m 12.67895,0.177405 c 0.19131,-0.309547 0.92592,-0.241621 1.93333,0.178763 0.47925,0.199988 0.51962,0.129684 0.36616,-0.637633 -0.12939,-0.646924 -0.0348,-0.987008 0.37858,-1.361107 0.74722,-0.676222 0.69343,-0.921794 -0.22505,-1.027478 -0.47968,-0.05519 -0.88252,-0.331837 -1.0547,-0.724301 -0.36481,-0.831528 -0.82332,-0.805059 -1.22228,0.07056 -0.21918,0.481047 -0.54791,0.705555 -1.03308,0.705555 -0.80361,0 -0.91483,0.326667 -0.28827,0.846667 0.23283,0.193234 0.42333,0.780285 0.42333,1.304555 0,0.938513 0.34816,1.249274 0.72198,0.644423 z m -46.7883,-4.537766 c 0.2532,-0.253201 0.50179,-0.253201 1.0575,0 0.98956,0.450873 0.98216,0.455597 0.98216,-0.626573 0,-0.590838 0.16213,-1.019798 0.42333,-1.120032 0.71189,-0.273175 0.50031,-1.026829 -0.28827,-1.026829 -0.48517,0 -0.8139,-0.224508 -1.03308,-0.705556 -0.17681,-0.388055 -0.43123,-0.705555 -0.56538,-0.705555 -0.13415,0 -0.36462,0.3175 -0.51216,0.705555 -0.18603,0.489303 -0.48154,0.705556 -0.96414,0.705556 -0.94731,0 -1.11239,0.385577 -0.42962,1.003478 0.42122,0.381203 0.52335,0.719946 0.39425,1.307716 -0.18723,0.852452 0.30297,1.094686 0.93541,0.46224 z m 13.60755,-0.0147 c 0.43682,-0.272798 0.62648,-0.272798 0.89928,0 0.64551,0.64551 1.13912,0.413002 0.95011,-0.447539 -0.12909,-0.58777 -0.027,-0.926513 0.39426,-1.307716 0.67014,-0.606473 0.52086,-1.003475 -0.37734,-1.003475 -0.41263,0 -0.75897,-0.253201 -0.96507,-0.705556 -0.39761,-0.872651 -0.68201,-0.892344 -1.04277,-0.0722 -0.15322,0.348344 -0.53259,0.678168 -0.84303,0.732948 -0.89426,0.157796 -1.20102,0.603712 -0.635,0.923078 0.3211,0.181172 0.49389,0.619345 0.49389,1.252423 0,1.041104 0.2452,1.177908 1.12567,0.628043 z m 13.83211,0.0087 c 0.23283,0 0.70886,0.09058 1.05783,0.201281 0.57976,0.183913 0.62027,0.130124 0.46956,-0.623423 -0.1133,-0.566505 -0.0248,-0.941025 0.28272,-1.196233 0.68051,-0.564772 0.5463,-1.149079 -0.26394,-1.149079 -0.48517,0 -0.8139,-0.224508 -1.03308,-0.705556 -0.17681,-0.388055 -0.43123,-0.705555 -0.56538,-0.705555 -0.13415,0 -0.36462,0.3175 -0.51216,0.705555 -0.18837,0.495456 -0.48043,0.705556 -0.98079,0.705556 -0.81114,0 -0.94576,0.584002 -0.26488,1.149079 0.30751,0.255208 0.39602,0.629728 0.28272,1.196233 -0.15071,0.753547 -0.1102,0.807336 0.46956,0.623423 0.34898,-0.110705 0.825,-0.201281 1.05784,-0.201281 z m 12.93282,-0.0087 c 0.2728,-0.272799 0.46246,-0.272799 0.89928,0 0.8754,0.546698 1.20625,0.423 1.05032,-0.392701 -0.0945,-0.494546 0.0378,-0.917369 0.40072,-1.280292 0.6087,-0.608694 0.46876,-1.08574 -0.31848,-1.08574 -0.28834,0 -0.76538,-0.331019 -1.0601,-0.735595 l -0.53584,-0.735593 -0.48198,0.735593 c -0.26509,0.404576 -0.72556,0.735595 -1.02326,0.735595 -0.79268,0 -0.92045,0.419374 -0.2991,0.98169 0.39571,0.358112 0.49988,0.715301 0.3814,1.307719 -0.17644,0.882204 0.33227,1.124091 0.98704,0.469324 z m -46.51727,-4.224612 c 0.23284,0 0.70886,0.09058 1.05784,0.201281 0.57975,0.183913 0.62027,0.130124 0.46956,-0.623424 -0.1133,-0.566504 -0.0248,-0.941024 0.28272,-1.196232 0.68051,-0.564772 0.54629,-1.149079 -0.26395,-1.149079 -0.48517,0 -0.81389,-0.224508 -1.03307,-0.705556 -0.17681,-0.388055 -0.40771,-0.705555 -0.5131,-0.705555 -0.10539,0 -0.33628,0.3175 -0.51309,0.705555 -0.21918,0.481048 -0.54791,0.705556 -1.03308,0.705556 -0.81024,0 -0.94445,0.584307 -0.26394,1.149079 0.3075,0.255208 0.39602,0.629728 0.28272,1.196232 -0.15071,0.753548 -0.1102,0.807337 0.46956,0.623424 0.34897,-0.110705 0.825,-0.201281 1.05783,-0.201281 z m 12.97901,-0.0087 c 0.43682,-0.272799 0.62648,-0.272799 0.89928,0 0.64733,0.647325 1.07949,0.386735 1.07949,-0.650923 0,-0.625551 0.15762,-1.057122 0.42333,-1.159084 0.70106,-0.269019 0.47679,-0.905083 -0.35277,-1.000537 -0.47968,-0.05519 -0.88252,-0.331837 -1.05471,-0.7243 -0.3554,-0.810099 -0.53713,-0.798511 -1.10656,0.07055 -0.25427,0.388056 -0.70588,0.705556 -1.00358,0.705556 -0.80253,0 -0.91806,0.421541 -0.27503,1.003477 0.42123,0.381204 0.52335,0.719946 0.39425,1.307717 -0.19173,0.872972 0.10304,1.005388 0.9963,0.447539 z m 13.40314,0.0147 c 0.55572,-0.253201 0.80431,-0.253201 1.05751,0 0.63244,0.632446 1.12264,0.390212 0.93541,-0.462241 -0.1291,-0.58777 -0.027,-0.926513 0.39425,-1.307716 0.68277,-0.6179 0.51769,-1.003477 -0.42963,-1.003477 -0.48259,0 -0.7781,-0.216253 -0.96413,-0.705556 -0.14754,-0.388056 -0.37801,-0.705555 -0.51216,-0.705555 -0.13415,0 -0.38857,0.317499 -0.56538,0.705555 -0.21918,0.481048 -0.54791,0.705556 -1.03308,0.705556 -0.79853,0 -0.94716,0.582057 -0.28827,1.128888 0.23283,0.193235 0.42333,0.716786 0.42333,1.163444 0,0.92602 0.003,0.927354 0.98215,0.481102 z m 13.34708,0 c 0.2532,-0.253201 0.50179,-0.253201 1.05751,0 0.98956,0.450872 0.98215,0.455597 0.98215,-0.626573 0,-0.590838 0.16213,-1.019799 0.42333,-1.120033 0.71189,-0.273174 0.50031,-1.026828 -0.28827,-1.026828 -0.48517,0 -0.8139,-0.224508 -1.03308,-0.705556 -0.17681,-0.388056 -0.43081,-0.705555 -0.56444,-0.705555 -0.13364,0 -0.38764,0.317499 -0.56445,0.705555 -0.2061,0.452354 -0.55244,0.705556 -0.96507,0.705556 -0.8982,0 -1.04749,0.397002 -0.37734,1.003477 0.42123,0.381203 0.52335,0.719946 0.39425,1.307716 -0.18722,0.852453 0.30297,1.094687 0.93541,0.462241 z m 13.46403,0 c 0.55572,-0.253201 0.80431,-0.253201 1.05751,0 0.63244,0.632446 1.12264,0.390212 0.93541,-0.462241 -0.1291,-0.58777 -0.027,-0.926513 0.39425,-1.307716 0.67015,-0.606478 0.52086,-1.00348 -0.37734,-1.00348 -0.41263,0 -0.75897,-0.253202 -0.96507,-0.705556 -0.39782,-0.873113 -0.68222,-0.892358 -1.04276,-0.07055 -0.17219,0.392463 -0.57503,0.669109 -1.0547,0.7243 -0.82957,0.09545 -1.05384,0.731518 -0.35278,1.000537 0.26571,0.101962 0.42333,0.533533 0.42333,1.159084 0,1.124102 -0.01,1.117538 0.98215,0.665624 z m -45.86148,-4.273203 c 0.8412,0.31752 0.85267,0.309358 0.85267,-0.606859 0,-0.510789 0.1905,-1.086807 0.42333,-1.280042 0.54806,-0.454849 0.5407,-0.846666 -0.0159,-0.846666 -0.24158,0 -0.8077,-0.403414 -1.25805,-0.896476 l -0.8188,-0.896476 -0.28952,0.761489 c -0.19903,0.523494 -0.55981,0.815549 -1.15435,0.934457 l -0.86484,0.172966 0.61247,0.65195 c 0.42904,0.456689 0.56142,0.855399 0.44199,1.331234 -0.21727,0.865685 0.0205,1.100666 0.69032,0.682328 0.39822,-0.248691 0.73762,-0.250636 1.38069,-0.0079 z m 26.93006,0.02447 c 0.84084,0.383111 1.03102,0.21014 0.83678,-0.761057 -0.0995,-0.497428 0.003,-0.886511 0.29594,-1.130128 0.56909,-0.472302 0.57403,-0.866857 0.0108,-0.866857 -0.24024,0 -0.74824,-0.336045 -1.12889,-0.746766 l -0.69206,-0.746762 -0.69208,0.746768 c -0.38065,0.410721 -0.88865,0.746766 -1.12889,0.746766 -0.56318,0 -0.55824,0.394555 0.0108,0.866856 0.29354,0.243617 0.39543,0.6327 0.29595,1.130128 -0.19424,0.971197 -0.004,1.144169 0.83677,0.761058 0.49026,-0.223377 0.86454,-0.223377 1.3548,0 z m -12.66142,-0.700335 c -0.11031,-0.439518 0.019,-0.798152 0.40792,-1.131135 0.76662,-0.656404 0.72007,-0.825889 -0.28188,-1.026281 -0.5876,-0.117517 -0.94385,-0.412595 -1.14998,-0.9525 -0.28831,-0.755159 -0.31257,-0.763273 -0.70089,-0.234405 -0.22124,0.301311 -0.40225,0.640472 -0.40225,0.753691 0,0.113222 -0.381,0.28954 -0.84667,0.391818 -0.94244,0.206995 -1.05308,0.465138 -0.42333,0.987777 0.23283,0.193235 0.42333,0.689571 0.42333,1.10297 0,0.723818 0.058,0.751634 1.56764,0.751634 1.49095,0 1.55973,-0.03148 1.40611,-0.643563 z m 26.86252,0.0056 c -0.074,-0.387115 0.0841,-0.824438 0.402,-1.112155 0.72462,-0.655772 0.65939,-0.876535 -0.32272,-1.092243 -0.46566,-0.102277 -0.84666,-0.278595 -0.84666,-0.391817 0,-0.113219 -0.17934,-0.45111 -0.39852,-0.750867 -0.38499,-0.526502 -0.41028,-0.519221 -0.74455,0.214422 -0.2148,0.471432 -0.65231,0.826702 -1.1537,0.936825 -0.95717,0.21023 -1.00118,0.405872 -0.23824,1.059121 0.3889,0.332982 0.51823,0.691616 0.40792,1.131135 -0.15382,0.612857 -0.0857,0.643563 1.42745,0.643563 1.49785,0 1.58199,-0.03659 1.46702,-0.637984 z M 118.62227,39.86024 c 0.82988,0.378119 1.05794,0.188677 0.83624,-0.694644 -0.10949,-0.436243 0.002,-0.864385 0.315,-1.210319 0.55979,-0.618555 0.35941,-1.135301 -0.44023,-1.135301 -0.31689,0 -0.69138,-0.301862 -0.87531,-0.705555 -0.17681,-0.388056 -0.40771,-0.705556 -0.5131,-0.705556 -0.10539,0 -0.33628,0.3175 -0.51309,0.705556 -0.18394,0.403693 -0.55842,0.705555 -0.87531,0.705555 -0.79964,0 -1.00002,0.516746 -0.44024,1.135301 0.31307,0.345934 0.4245,0.774076 0.31501,1.210319 -0.2217,0.883321 0.006,1.072763 0.83623,0.694644 0.49026,-0.223376 0.86454,-0.223376 1.3548,0 z m 26.71484,-0.201755 c 0.7678,0.485798 1.13375,0.308932 0.94196,-0.455244 -0.13325,-0.530879 -0.0106,-0.90262 0.46495,-1.408768 l 0.64595,-0.687587 -0.91574,-0.183148 c -0.63479,-0.126958 -1.00251,-0.409078 -1.19857,-0.919564 l -0.28283,-0.73642 -0.61231,0.743125 c -0.33677,0.408717 -0.89807,0.830027 -1.24732,0.936238 -0.74071,0.225267 -0.80137,0.512335 -0.21166,1.001748 0.23283,0.193235 0.42333,0.783548 0.42333,1.311803 v 0.96047 l 0.7928,-0.409973 c 0.51299,-0.265275 0.93632,-0.319162 1.19944,-0.15268 z m 14.88138,-1.797405 c 0.39918,-0.442959 0.40565,-0.54588 0.0485,-0.77179 -0.22666,-0.143369 -0.56027,-0.262617 -0.74135,-0.264993 -0.18108,-0.0023 -0.58436,-0.353571 -0.89619,-0.780432 l -0.56695,-0.776111 -0.28118,0.73642 c -0.19514,0.511081 -0.56138,0.792457 -1.19691,0.919564 l -0.91574,0.183148 0.62605,0.666403 c 0.46502,0.49499 0.57813,0.857354 0.43974,1.408769 -0.19908,0.793171 0.0989,0.94442 0.95639,0.48549 0.31463,-0.168385 0.72143,-0.126772 1.18089,0.120802 0.67369,0.363005 0.70452,0.342832 0.79354,-0.519238 0.0509,-0.493302 0.29989,-1.126916 0.55322,-1.408032 z m -28.86806,1.740233 c 0.15522,0 0.56797,0.08751 0.91722,0.194471 0.55317,0.169409 0.635,0.09308 0.635,-0.592337 0,-0.432742 0.2172,-1.026806 0.48267,-1.320145 0.41638,-0.460098 0.42607,-0.569138 0.0705,-0.794012 -0.22666,-0.143369 -0.63436,-0.262617 -0.906,-0.264993 -0.27164,-0.0023 -0.49389,-0.107047 -0.49389,-0.232602 0,-0.125555 -0.17933,-0.473535 -0.39852,-0.773291 -0.38458,-0.525955 -0.41084,-0.517971 -0.75085,0.228281 -0.19379,0.425311 -0.5542,0.775236 -0.80093,0.777612 -0.24672,0.0023 -0.63738,0.123692 -0.86814,0.269593 -0.35632,0.225289 -0.3241,0.354194 0.21379,0.855314 0.47689,0.444294 0.58769,0.771948 0.44852,1.326422 -0.16915,0.673958 -0.12747,0.718972 0.49177,0.531032 0.37212,-0.11294 0.80359,-0.205345 0.95881,-0.205345 z m 40.35777,0 c 0.15523,0 0.58669,0.0924 0.95881,0.205345 0.61924,0.18794 0.66092,0.142926 0.49177,-0.531032 -0.13917,-0.554474 -0.0284,-0.882128 0.44852,-1.326422 0.53789,-0.50112 0.57011,-0.630025 0.21379,-0.855314 -0.23076,-0.145901 -0.64495,-0.267217 -0.92043,-0.269593 -0.28411,-0.0025 -0.62911,-0.340196 -0.79719,-0.780432 -0.2862,-0.749596 -0.31006,-0.757397 -0.69857,-0.228281 -0.22124,0.301306 -0.40225,0.650556 -0.40225,0.776111 0,0.125555 -0.22225,0.230226 -0.49389,0.232602 -0.27164,0.0023 -0.67934,0.121624 -0.906,0.264993 -0.35552,0.224874 -0.34583,0.333914 0.0705,0.794012 0.26547,0.293339 0.48267,0.887403 0.48267,1.320145 0,0.685419 0.0818,0.761746 0.635,0.592337 0.34925,-0.10696 0.762,-0.194471 0.91722,-0.194471 z"
         id="path4429" />
      <path
         style="fill:#444a9c;stroke-width:0.282222"
         d="m 111.9965,79.739416 -0.82496,-0.824955 v -23.74693 c 0,-15.747375 0.0979,-23.929837 0.29059,-24.289898 0.77446,-1.447089 -0.46763,-1.395478 33.58377,-1.395478 h 31.64461 l 0.82496,0.824957 c 0.79781,0.797808 0.82534,0.916229 0.83658,3.598334 0.0132,3.147912 0.011,38.377259 -0.003,42.333385 -0.008,2.366704 -0.0716,2.66343 -0.73957,3.457222 l -0.73052,0.868321 H 144.8503 112.82145 Z m 5.94837,-5.438698 c 0.23284,0 0.70886,0.09058 1.05784,0.201281 0.57975,0.183913 0.62027,0.130124 0.46956,-0.623424 -0.1133,-0.566504 -0.0248,-0.941024 0.28272,-1.196232 0.68088,-0.565077 0.54625,-1.149079 -0.26488,-1.149079 -0.50036,0 -0.79242,-0.210101 -0.98079,-0.705556 -0.14754,-0.388055 -0.40154,-0.705555 -0.56445,-0.705555 -0.1629,0 -0.4169,0.3175 -0.56444,0.705555 -0.18837,0.495455 -0.48043,0.705556 -0.98079,0.705556 -0.81114,0 -0.94576,0.584002 -0.26488,1.149079 0.3075,0.255208 0.39602,0.629728 0.28272,1.196232 -0.15071,0.753548 -0.1102,0.807337 0.46956,0.623424 0.34897,-0.110705 0.825,-0.201281 1.05783,-0.201281 z m 12.91812,0.006 c 0.2532,-0.253201 0.50179,-0.253201 1.05751,0 0.99184,0.451911 0.98215,0.458476 0.98215,-0.665627 0,-0.625551 0.15762,-1.057122 0.42333,-1.159084 0.70106,-0.269019 0.47679,-0.905083 -0.35277,-1.000537 -0.47968,-0.05519 -0.88252,-0.331836 -1.05471,-0.7243 -0.3554,-0.810099 -0.53713,-0.798511 -1.10656,0.07055 -0.25427,0.388056 -0.70588,0.705556 -1.00358,0.705556 -0.79268,0 -0.92046,0.419373 -0.2991,0.98169 0.39571,0.358112 0.49988,0.715301 0.3814,1.307719 -0.17482,0.874067 0.33066,1.125694 0.97233,0.484025 z m 13.46403,0 c 0.55572,-0.253201 0.80431,-0.253201 1.05751,0 0.63244,0.632446 1.12264,0.390212 0.93541,-0.462241 -0.1291,-0.58777 -0.027,-0.926512 0.39425,-1.307716 0.68277,-0.6179 0.51769,-1.003477 -0.42963,-1.003477 -0.48259,0 -0.7781,-0.216253 -0.96413,-0.705556 -0.14754,-0.388055 -0.37801,-0.705555 -0.51216,-0.705555 -0.13415,0 -0.38857,0.3175 -0.56538,0.705555 -0.21918,0.481048 -0.54791,0.705556 -1.03308,0.705556 -0.78858,0 -1.00016,0.753654 -0.28827,1.026828 0.2612,0.100234 0.42333,0.529195 0.42333,1.120033 0,1.08217 -0.007,1.077445 0.98215,0.626573 z m 13.34708,0 c 0.2532,-0.253201 0.50179,-0.253201 1.05751,0 0.99184,0.451914 0.98215,0.458478 0.98215,-0.665624 0,-0.625551 0.15762,-1.057123 0.42333,-1.159084 0.69872,-0.268125 0.49192,-0.948726 -0.28827,-0.948726 -0.48517,0 -0.8139,-0.224508 -1.03308,-0.705556 -0.17681,-0.388055 -0.43081,-0.705555 -0.56444,-0.705555 -0.13364,0 -0.38764,0.3175 -0.56445,0.705555 -0.2061,0.452354 -0.55244,0.705556 -0.96507,0.705556 -0.8982,0 -1.04749,0.397002 -0.37734,1.003477 0.42123,0.381204 0.52335,0.719946 0.39425,1.307716 -0.18722,0.852453 0.30297,1.094687 0.93541,0.462241 z m 13.46403,0 c 0.55572,-0.253201 0.80431,-0.253201 1.05751,0 0.63244,0.632446 1.12264,0.390212 0.93541,-0.462241 -0.1291,-0.58777 -0.027,-0.926512 0.39425,-1.307716 0.64303,-0.581939 0.5275,-1.00348 -0.27502,-1.00348 -0.29771,0 -0.74932,-0.3175 -1.00359,-0.705556 -0.25426,-0.388055 -0.5543,-0.705555 -0.66675,-0.705555 -0.11246,0 -0.34913,0.3175 -0.52594,0.705555 -0.21918,0.481048 -0.54791,0.705556 -1.03308,0.705556 -0.78019,0 -0.98699,0.680601 -0.28827,0.948726 0.26571,0.101962 0.42333,0.533533 0.42333,1.159084 0,1.124103 -0.01,1.117538 0.98215,0.665624 z m -44.53577,-6.212876 c 0.48748,-0.541114 0.28437,-1.076117 -0.40854,-1.076117 -0.25665,0 -0.74695,-0.34925 -1.08955,-0.776111 l -0.62292,-0.776111 -0.28283,0.73642 c -0.19606,0.510486 -0.56377,0.792607 -1.19856,0.919564 l -0.91574,0.183148 0.62605,0.666403 c 0.46502,0.49499 0.57813,0.857355 0.43973,1.408769 -0.19907,0.793171 0.0989,0.94442 0.9564,0.48549 0.31463,-0.168385 0.72143,-0.126772 1.18089,0.120802 0.67369,0.363006 0.70451,0.342832 0.79354,-0.519238 0.0509,-0.493302 0.28563,-1.11116 0.52153,-1.373019 z m 25.60435,1.964148 c 0.82988,0.378118 1.05794,0.188676 0.83624,-0.694645 -0.10949,-0.436242 0.002,-0.864385 0.31501,-1.210319 0.54962,-0.607331 0.3628,-1.135301 -0.40173,-1.135301 -0.28343,0 -0.73741,-0.338931 -1.00884,-0.753183 l -0.4935,-0.753186 -0.39464,0.753186 c -0.21757,0.415262 -0.63635,0.753183 -0.9334,0.753183 -0.7859,0 -0.98104,0.521076 -0.42518,1.135301 0.31307,0.345934 0.4245,0.774077 0.31501,1.210319 -0.2217,0.883321 0.006,1.072763 0.83624,0.694645 0.49025,-0.223376 0.86454,-0.223376 1.35479,0 z m -14.08295,-0.258928 c 0.15522,0 0.58669,0.0924 0.95881,0.205345 0.61923,0.18794 0.66092,0.142926 0.49176,-0.531032 -0.13916,-0.554474 -0.0284,-0.882128 0.44853,-1.326422 0.53789,-0.501119 0.57011,-0.630024 0.21379,-0.855314 -0.23076,-0.1459 -0.64181,-0.267216 -0.91344,-0.269593 -0.27164,-0.0023 -0.49389,-0.107047 -0.49389,-0.232602 0,-0.125555 -0.17934,-0.473535 -0.39852,-0.773291 -0.38459,-0.525955 -0.41085,-0.517971 -0.75086,0.228281 -0.19379,0.425311 -0.5542,0.775236 -0.80092,0.777612 -0.24673,0.0023 -0.63404,0.121624 -0.8607,0.264993 -0.35552,0.224874 -0.34583,0.333914 0.0705,0.794012 0.26547,0.293339 0.48267,0.887403 0.48267,1.320145 0,0.685419 0.0818,0.761746 0.635,0.592337 0.34925,-0.10696 0.762,-0.194471 0.91722,-0.194471 z m 26.81111,0 c 0.15522,0 0.57939,0.0905 0.9426,0.201109 0.5848,0.178088 0.64962,0.11897 0.56635,-0.516475 -0.0557,-0.42494 0.1308,-0.966024 0.45729,-1.326783 0.46994,-0.519286 0.49049,-0.647675 0.13921,-0.869874 -0.22667,-0.143369 -0.63437,-0.262616 -0.90601,-0.264993 -0.27163,-0.0023 -0.49388,-0.107047 -0.49388,-0.232602 0,-0.125555 -0.17934,-0.473535 -0.39852,-0.773291 -0.38459,-0.525955 -0.41085,-0.517971 -0.75086,0.228281 -0.19379,0.425311 -0.5542,0.775236 -0.80093,0.777612 -0.24672,0.0023 -0.63738,0.123693 -0.86813,0.269593 -0.35632,0.22529 -0.32411,0.354195 0.21378,0.855314 0.4769,0.444294 0.58769,0.771948 0.44853,1.326422 -0.16916,0.673958 -0.12747,0.718972 0.49176,0.531032 0.37212,-0.11294 0.80359,-0.205345 0.95881,-0.205345 z M 117.60621,65.55017 c 0.2634,-0.263406 0.41392,-0.263406 0.67733,0 0.18627,0.186267 0.56969,0.338667 0.85204,0.338667 0.40885,0 0.47674,-0.145974 0.33344,-0.716927 -0.12111,-0.482566 -0.0216,-0.891915 0.30449,-1.252217 0.55979,-0.618555 0.35941,-1.135301 -0.44023,-1.135301 -0.31689,0 -0.69138,-0.301862 -0.87531,-0.705555 -0.17681,-0.388056 -0.40771,-0.705556 -0.5131,-0.705556 -0.10539,0 -0.33628,0.3175 -0.51309,0.705556 -0.18394,0.403693 -0.55842,0.705555 -0.87531,0.705555 -0.79964,0 -1.00002,0.516746 -0.44024,1.135301 0.32607,0.360302 0.42561,0.769651 0.30449,1.252217 -0.1433,0.570953 -0.0754,0.716927 0.33344,0.716927 0.28236,0 0.66578,-0.1524 0.85205,-0.338667 z m 13.74422,0.01555 c 0.15522,0 0.56797,0.08751 0.91722,0.194471 0.55317,0.16941 0.635,0.09308 0.635,-0.592336 0,-0.432743 0.20294,-1.011053 0.45098,-1.285133 0.5616,-0.620553 0.2968,-1.09833 -0.60875,-1.09833 -0.37889,0 -0.6889,-0.102726 -0.6889,-0.228281 0,-0.125555 -0.17933,-0.473535 -0.39852,-0.773291 -0.38458,-0.525955 -0.41084,-0.517971 -0.75085,0.228281 -0.19379,0.425311 -0.5542,0.775236 -0.80093,0.777612 -0.24672,0.0023 -0.63738,0.123693 -0.86814,0.269593 -0.35632,0.225289 -0.3241,0.354194 0.21379,0.855314 0.47689,0.444294 0.58769,0.771948 0.44852,1.326422 -0.16915,0.673958 -0.12747,0.718972 0.49177,0.531032 0.37212,-0.11294 0.80359,-0.205345 0.95881,-0.205345 z m 13.54666,0 c 0.15523,0 0.57454,0.08923 0.93182,0.198287 0.59218,0.18076 0.63278,0.131295 0.45938,-0.559627 -0.14395,-0.573529 -0.0331,-0.925186 0.45573,-1.4455 l 0.64595,-0.687586 -0.91574,-0.183148 c -0.63479,-0.126958 -1.00251,-0.409079 -1.19857,-0.919565 l -0.28283,-0.736419 -0.62291,0.776111 c -0.34261,0.426861 -0.8329,0.776111 -1.08955,0.776111 -0.70395,0 -0.89335,0.538257 -0.38648,1.098338 0.24804,0.27408 0.45098,0.85239 0.45098,1.285133 0,0.685419 0.0818,0.761746 0.635,0.592336 0.34925,-0.106959 0.762,-0.194471 0.91722,-0.194471 z m 13.26445,0 c 0.15522,0 0.56797,0.08751 0.91722,0.194471 0.55317,0.16941 0.635,0.09308 0.635,-0.592336 0,-0.432743 0.20294,-1.011053 0.45098,-1.285133 0.52247,-0.577322 0.3118,-1.098338 -0.4441,-1.098338 -0.28833,0 -0.77937,-0.34925 -1.0912,-0.776111 l -0.56695,-0.776111 -0.28118,0.736419 c -0.19514,0.511082 -0.56138,0.792457 -1.19691,0.919565 l -0.91574,0.183148 0.62605,0.666403 c 0.47942,0.510317 0.57984,0.850536 0.42874,1.452558 -0.18299,0.729107 -0.14821,0.771254 0.47928,0.58081 0.37212,-0.112939 0.80359,-0.205345 0.95881,-0.205345 z m 13.54666,0 c 0.15523,0 0.58669,0.09241 0.95881,0.205345 0.61924,0.187941 0.66092,0.142926 0.49177,-0.531032 -0.13917,-0.554473 -0.0284,-0.882128 0.44852,-1.326422 0.53789,-0.501119 0.57011,-0.630024 0.21379,-0.855314 -0.23076,-0.1459 -0.64495,-0.267216 -0.92043,-0.269592 -0.28411,-0.0025 -0.62911,-0.340197 -0.79719,-0.780432 -0.2862,-0.749596 -0.31006,-0.757397 -0.69857,-0.228281 -0.22124,0.301306 -0.40225,0.650556 -0.40225,0.776111 0,0.125555 -0.31001,0.228281 -0.6889,0.228281 -0.90554,0 -1.17035,0.477777 -0.60875,1.098338 0.24804,0.27408 0.45098,0.85239 0.45098,1.285133 0,0.685419 0.0818,0.761746 0.635,0.592336 0.34925,-0.106959 0.762,-0.194471 0.91722,-0.194471 z M 124.61457,61.1693 c 0.33105,-0.07227 0.6878,0.0076 0.79277,0.177404 0.37381,0.604851 0.72198,0.29409 0.72198,-0.644423 0,-0.52427 0.1905,-1.11132 0.42333,-1.304555 0.62656,-0.52 0.51534,-0.846667 -0.28827,-0.846667 -0.48517,0 -0.8139,-0.224508 -1.03308,-0.705555 -0.17681,-0.388056 -0.41348,-0.705556 -0.52594,-0.705556 -0.11245,0 -0.41249,0.3175 -0.66676,0.705556 -0.25426,0.388055 -0.70587,0.705555 -1.00358,0.705555 -0.80252,0 -0.91806,0.421541 -0.27502,1.003478 0.43209,0.391036 0.52444,0.714951 0.38495,1.350086 -0.16179,0.736592 -0.12125,0.809577 0.34208,0.615848 0.28909,-0.120875 0.79648,-0.278903 1.12754,-0.351171 z m 12.67895,0.177404 c 0.19131,-0.309547 0.92592,-0.241621 1.93333,0.178763 0.47925,0.199988 0.51962,0.129684 0.36615,-0.637633 -0.12938,-0.646924 -0.0348,-0.987008 0.37859,-1.361107 0.74721,-0.676222 0.69342,-0.921794 -0.22505,-1.027478 -0.47968,-0.05519 -0.88252,-0.331837 -1.0547,-0.724301 -0.36481,-0.831528 -0.82333,-0.805058 -1.22228,0.07056 -0.21918,0.481047 -0.54791,0.705555 -1.03308,0.705555 -0.80361,0 -0.91484,0.326667 -0.28827,0.846667 0.23283,0.193235 0.42333,0.780285 0.42333,1.304555 0,0.938513 0.34816,1.249274 0.72198,0.644423 z m 13.67518,-0.04131 c 0.44772,-0.279603 0.6766,-0.277679 1.13654,0.0096 0.77736,0.48547 1.04814,0.252408 0.89769,-0.772662 -0.0893,-0.608725 0.006,-0.906244 0.32927,-1.030399 0.72757,-0.279191 0.52616,-0.876026 -0.35509,-1.052277 -0.49616,-0.09923 -0.86864,-0.386266 -0.96136,-0.740833 -0.20232,-0.773679 -0.60473,-0.729948 -1.16604,0.12672 -0.25426,0.388056 -0.71337,0.705556 -1.02023,0.705556 -0.67091,0 -0.74532,0.714375 -0.1002,0.961929 0.33372,0.128064 0.4139,0.394837 0.29594,0.984653 -0.23075,1.153759 0.0308,1.37771 0.94348,0.807751 z m 13.96617,-0.02448 c 0.31044,0 0.78669,0.09787 1.05833,0.217489 0.41749,0.183843 0.49389,0.06536 0.49389,-0.765931 0,-0.540879 0.1905,-1.141515 0.42334,-1.33475 0.62656,-0.52 0.51533,-0.846667 -0.28828,-0.846667 -0.48517,0 -0.81389,-0.224508 -1.03307,-0.705555 -0.39896,-0.875614 -0.85747,-0.902084 -1.22229,-0.07056 -0.17218,0.392464 -0.57502,0.66911 -1.0547,0.724301 -0.91847,0.105684 -0.97226,0.351256 -0.22505,1.027478 0.41338,0.374099 0.50797,0.714183 0.37859,1.361107 -0.15392,0.769563 -0.1145,0.837141 0.36616,0.627744 0.29625,-0.129063 0.79264,-0.23466 1.10308,-0.23466 z m -47.55061,-4.208858 c 0.44772,-0.279604 0.67659,-0.277679 1.13654,0.0096 0.78731,0.491688 1.13132,0.198473 0.93264,-0.794935 -0.12256,-0.61282 -0.0459,-0.877556 0.29147,-1.007031 0.63669,-0.244326 0.57465,-0.961935 -0.0832,-0.961935 -0.2975,0 -0.8055,-0.34925 -1.12889,-0.776111 l -0.58799,-0.776111 -0.58798,0.776111 c -0.32339,0.426861 -0.83139,0.776111 -1.12889,0.776111 -0.65781,0 -0.71985,0.717609 -0.0832,0.961929 0.33372,0.128064 0.4139,0.394837 0.29594,0.984654 -0.23075,1.153758 0.0308,1.37771 0.94348,0.807751 z m 14.00364,-0.136094 c 0.33106,-0.07227 0.6878,0.0076 0.79277,0.177405 0.37382,0.604851 0.72198,0.29409 0.72198,-0.644423 0,-0.52427 0.1905,-1.111321 0.42333,-1.304555 0.62657,-0.52 0.51534,-0.846667 -0.28827,-0.846667 -0.48517,0 -0.8139,-0.224508 -1.03308,-0.705555 -0.39896,-0.875615 -0.85747,-0.902084 -1.22228,-0.07056 -0.17218,0.392464 -0.57502,0.669109 -1.0547,0.724301 -0.91848,0.105684 -0.97226,0.351256 -0.22505,1.027478 0.41338,0.374099 0.50797,0.714183 0.37858,1.361107 -0.15346,0.767317 -0.11309,0.837621 0.36616,0.637633 0.29626,-0.123625 0.80951,-0.283899 1.14056,-0.356168 z m 12.67895,0.177405 c 0.19053,-0.308285 0.92674,-0.241667 1.92031,0.173767 0.46332,0.193729 0.50387,0.120744 0.34208,-0.615848 -0.1395,-0.635135 -0.0471,-0.95905 0.38495,-1.350086 0.64303,-0.581937 0.5275,-1.003478 -0.27502,-1.003478 -0.29771,0 -0.74932,-0.3175 -1.00358,-0.705555 -0.561,-0.856189 -0.8647,-0.891735 -1.10662,-0.129515 -0.10853,0.341943 -0.51768,0.643009 -1.0068,0.740833 -0.92222,0.184444 -1.02403,0.423531 -0.40063,0.940904 0.23283,0.193234 0.42333,0.780285 0.42333,1.304555 0,0.938513 0.34817,1.249274 0.72198,0.644423 z m 14.13216,-0.177405 c 0.33106,-0.07227 0.6878,0.0076 0.79277,0.177405 0.37382,0.604851 0.72198,0.29409 0.72198,-0.644423 0,-0.52427 0.1905,-1.111321 0.42333,-1.304555 0.62656,-0.52 0.51534,-0.846667 -0.28827,-0.846667 -0.48517,0 -0.8139,-0.224508 -1.03308,-0.705555 -0.17681,-0.388056 -0.41348,-0.705556 -0.52594,-0.705556 -0.11245,0 -0.41249,0.3175 -0.66675,0.705556 -0.28717,0.438265 -0.72713,0.705555 -1.16135,0.705555 -0.84952,0 -0.88758,0.306347 -0.12392,0.997452 0.43859,0.396912 0.53156,0.718894 0.39161,1.356112 -0.16178,0.736592 -0.12124,0.809577 0.34208,0.615848 0.2891,-0.120875 0.79649,-0.278903 1.12754,-0.351172 z m 12.67895,0.177405 c 0.19131,-0.309547 0.92592,-0.241621 1.93333,0.178763 0.47925,0.199988 0.51962,0.129684 0.36616,-0.637633 -0.12939,-0.646924 -0.0348,-0.987008 0.37858,-1.361107 0.74722,-0.676222 0.69343,-0.921794 -0.22505,-1.027478 -0.47968,-0.05519 -0.88252,-0.331837 -1.0547,-0.724301 -0.36481,-0.831528 -0.82332,-0.805059 -1.22228,0.07056 -0.21918,0.481047 -0.54791,0.705555 -1.03308,0.705555 -0.80361,0 -0.91483,0.326667 -0.28827,0.846667 0.23283,0.193234 0.42333,0.780285 0.42333,1.304555 0,0.938513 0.34816,1.249274 0.72198,0.644423 z m -46.7883,-4.537766 c 0.2532,-0.253201 0.50179,-0.253201 1.0575,0 0.98956,0.450873 0.98216,0.455597 0.98216,-0.626573 0,-0.590838 0.16213,-1.019798 0.42333,-1.120032 0.71189,-0.273175 0.50031,-1.026829 -0.28827,-1.026829 -0.48517,0 -0.8139,-0.224508 -1.03308,-0.705556 -0.17681,-0.388055 -0.43123,-0.705555 -0.56538,-0.705555 -0.13415,0 -0.36462,0.3175 -0.51216,0.705555 -0.18603,0.489303 -0.48154,0.705556 -0.96414,0.705556 -0.94731,0 -1.11239,0.385577 -0.42962,1.003478 0.42122,0.381203 0.52335,0.719946 0.39425,1.307716 -0.18723,0.852452 0.30297,1.094686 0.93541,0.46224 z m 13.60755,-0.0147 c 0.43682,-0.272798 0.62648,-0.272798 0.89928,0 0.64551,0.64551 1.13912,0.413002 0.95011,-0.447539 -0.12909,-0.58777 -0.027,-0.926513 0.39426,-1.307716 0.67014,-0.606473 0.52086,-1.003475 -0.37734,-1.003475 -0.41263,0 -0.75897,-0.253201 -0.96507,-0.705556 -0.39761,-0.872651 -0.68201,-0.892344 -1.04277,-0.0722 -0.15322,0.348344 -0.53259,0.678168 -0.84303,0.732948 -0.89426,0.157796 -1.20102,0.603712 -0.635,0.923078 0.3211,0.181172 0.49389,0.619345 0.49389,1.252423 0,1.041104 0.2452,1.177908 1.12567,0.628043 z m 13.83211,0.0087 c 0.23283,0 0.70886,0.09058 1.05783,0.201281 0.57976,0.183913 0.62027,0.130124 0.46956,-0.623423 -0.1133,-0.566505 -0.0248,-0.941025 0.28272,-1.196233 0.68051,-0.564772 0.5463,-1.149079 -0.26394,-1.149079 -0.48517,0 -0.8139,-0.224508 -1.03308,-0.705556 -0.17681,-0.388055 -0.43123,-0.705555 -0.56538,-0.705555 -0.13415,0 -0.36462,0.3175 -0.51216,0.705555 -0.18837,0.495456 -0.48043,0.705556 -0.98079,0.705556 -0.81114,0 -0.94576,0.584002 -0.26488,1.149079 0.30751,0.255208 0.39602,0.629728 0.28272,1.196233 -0.15071,0.753547 -0.1102,0.807336 0.46956,0.623423 0.34898,-0.110705 0.825,-0.201281 1.05784,-0.201281 z m 12.93282,-0.0087 c 0.2728,-0.272799 0.46246,-0.272799 0.89928,0 0.8754,0.546698 1.20625,0.423 1.05032,-0.392701 -0.0945,-0.494546 0.0378,-0.917369 0.40072,-1.280292 0.6087,-0.608694 0.46876,-1.08574 -0.31848,-1.08574 -0.28834,0 -0.76538,-0.331019 -1.0601,-0.735595 l -0.53584,-0.735593 -0.48198,0.735593 c -0.26509,0.404576 -0.72556,0.735595 -1.02326,0.735595 -0.79268,0 -0.92045,0.419374 -0.2991,0.98169 0.39571,0.358112 0.49988,0.715301 0.3814,1.307719 -0.17644,0.882204 0.33227,1.124091 0.98704,0.469324 z m -46.51727,-4.224612 c 0.23284,0 0.70886,0.09058 1.05784,0.201281 0.57975,0.183913 0.62027,0.130124 0.46956,-0.623424 -0.1133,-0.566504 -0.0248,-0.941024 0.28272,-1.196232 0.68051,-0.564772 0.54629,-1.149079 -0.26395,-1.149079 -0.48517,0 -0.81389,-0.224508 -1.03307,-0.705556 -0.17681,-0.388055 -0.40771,-0.705555 -0.5131,-0.705555 -0.10539,0 -0.33628,0.3175 -0.51309,0.705555 -0.21918,0.481048 -0.54791,0.705556 -1.03308,0.705556 -0.81024,0 -0.94445,0.584307 -0.26394,1.149079 0.3075,0.255208 0.39602,0.629728 0.28272,1.196232 -0.15071,0.753548 -0.1102,0.807337 0.46956,0.623424 0.34897,-0.110705 0.825,-0.201281 1.05783,-0.201281 z m 12.97901,-0.0087 c 0.43682,-0.272799 0.62648,-0.272799 0.89928,0 0.64733,0.647325 1.07949,0.386735 1.07949,-0.650923 0,-0.625551 0.15762,-1.057122 0.42333,-1.159084 0.70106,-0.269019 0.47679,-0.905083 -0.35277,-1.000537 -0.47968,-0.05519 -0.88252,-0.331837 -1.05471,-0.7243 -0.3554,-0.810099 -0.53713,-0.798511 -1.10656,0.07055 -0.25427,0.388056 -0.70588,0.705556 -1.00358,0.705556 -0.80253,0 -0.91806,0.421541 -0.27503,1.003477 0.42123,0.381204 0.52335,0.719946 0.39425,1.307717 -0.19173,0.872972 0.10304,1.005388 0.9963,0.447539 z m 13.40314,0.0147 c 0.55572,-0.253201 0.80431,-0.253201 1.05751,0 0.63244,0.632446 1.12264,0.390212 0.93541,-0.462241 -0.1291,-0.58777 -0.027,-0.926513 0.39425,-1.307716 0.68277,-0.6179 0.51769,-1.003477 -0.42963,-1.003477 -0.48259,0 -0.7781,-0.216253 -0.96413,-0.705556 -0.14754,-0.388056 -0.37801,-0.705555 -0.51216,-0.705555 -0.13415,0 -0.38857,0.317499 -0.56538,0.705555 -0.21918,0.481048 -0.54791,0.705556 -1.03308,0.705556 -0.79853,0 -0.94716,0.582057 -0.28827,1.128888 0.23283,0.193235 0.42333,0.716786 0.42333,1.163444 0,0.92602 0.003,0.927354 0.98215,0.481102 z m 13.34708,0 c 0.2532,-0.253201 0.50179,-0.253201 1.05751,0 0.98956,0.450872 0.98215,0.455597 0.98215,-0.626573 0,-0.590838 0.16213,-1.019799 0.42333,-1.120033 0.71189,-0.273174 0.50031,-1.026828 -0.28827,-1.026828 -0.48517,0 -0.8139,-0.224508 -1.03308,-0.705556 -0.17681,-0.388056 -0.43081,-0.705555 -0.56444,-0.705555 -0.13364,0 -0.38764,0.317499 -0.56445,0.705555 -0.2061,0.452354 -0.55244,0.705556 -0.96507,0.705556 -0.8982,0 -1.04749,0.397002 -0.37734,1.003477 0.42123,0.381203 0.52335,0.719946 0.39425,1.307716 -0.18722,0.852453 0.30297,1.094687 0.93541,0.462241 z m 13.46403,0 c 0.55572,-0.253201 0.80431,-0.253201 1.05751,0 0.63244,0.632446 1.12264,0.390212 0.93541,-0.462241 -0.1291,-0.58777 -0.027,-0.926513 0.39425,-1.307716 0.67015,-0.606478 0.52086,-1.00348 -0.37734,-1.00348 -0.41263,0 -0.75897,-0.253202 -0.96507,-0.705556 -0.39782,-0.873113 -0.68222,-0.892358 -1.04276,-0.07055 -0.17219,0.392463 -0.57503,0.669109 -1.0547,0.7243 -0.82957,0.09545 -1.05384,0.731518 -0.35278,1.000537 0.26571,0.101962 0.42333,0.533533 0.42333,1.159084 0,1.124102 -0.01,1.117538 0.98215,0.665624 z m -45.86148,-4.273203 c 0.8412,0.31752 0.85267,0.309358 0.85267,-0.606859 0,-0.510789 0.1905,-1.086807 0.42333,-1.280042 0.54806,-0.454849 0.5407,-0.846666 -0.0159,-0.846666 -0.24158,0 -0.8077,-0.403414 -1.25805,-0.896476 l -0.8188,-0.896476 -0.28952,0.761489 c -0.19903,0.523494 -0.55981,0.815549 -1.15435,0.934457 l -0.86484,0.172966 0.61247,0.65195 c 0.42904,0.456689 0.56142,0.855399 0.44199,1.331234 -0.21727,0.865685 0.0205,1.100666 0.69032,0.682328 0.39822,-0.248691 0.73762,-0.250636 1.38069,-0.0079 z m 26.93006,0.02447 c 0.84084,0.383111 1.03102,0.21014 0.83678,-0.761057 -0.0995,-0.497428 0.003,-0.886511 0.29594,-1.130128 0.56909,-0.472302 0.57403,-0.866857 0.0108,-0.866857 -0.24024,0 -0.74824,-0.336045 -1.12889,-0.746766 l -0.69206,-0.746762 -0.69208,0.746768 c -0.38065,0.410721 -0.88865,0.746766 -1.12889,0.746766 -0.56318,0 -0.55824,0.394555 0.0108,0.866856 0.29354,0.243617 0.39543,0.6327 0.29595,1.130128 -0.19424,0.971197 -0.004,1.144169 0.83677,0.761058 0.49026,-0.223377 0.86454,-0.223377 1.3548,0 z m -12.66142,-0.700335 c -0.11031,-0.439518 0.019,-0.798152 0.40792,-1.131135 0.76662,-0.656404 0.72007,-0.825889 -0.28188,-1.026281 -0.5876,-0.117517 -0.94385,-0.412595 -1.14998,-0.9525 -0.28831,-0.755159 -0.31257,-0.763273 -0.70089,-0.234405 -0.22124,0.301311 -0.40225,0.640472 -0.40225,0.753691 0,0.113222 -0.381,0.28954 -0.84667,0.391818 -0.94244,0.206995 -1.05308,0.465138 -0.42333,0.987777 0.23283,0.193235 0.42333,0.689571 0.42333,1.10297 0,0.723818 0.058,0.751634 1.56764,0.751634 1.49095,0 1.55973,-0.03148 1.40611,-0.643563 z m 26.86252,0.0056 c -0.074,-0.387115 0.0841,-0.824438 0.402,-1.112155 0.72462,-0.655772 0.65939,-0.876535 -0.32272,-1.092243 -0.46566,-0.102277 -0.84666,-0.278595 -0.84666,-0.391817 0,-0.113219 -0.17934,-0.45111 -0.39852,-0.750867 -0.38499,-0.526502 -0.41028,-0.519221 -0.74455,0.214422 -0.2148,0.471432 -0.65231,0.826702 -1.1537,0.936825 -0.95717,0.21023 -1.00118,0.405872 -0.23824,1.059121 0.3889,0.332982 0.51823,0.691616 0.40792,1.131135 -0.15382,0.612857 -0.0857,0.643563 1.42745,0.643563 1.49785,0 1.58199,-0.03659 1.46702,-0.637984 z M 118.62227,39.86024 c 0.82988,0.378119 1.05794,0.188677 0.83624,-0.694644 -0.10949,-0.436243 0.002,-0.864385 0.315,-1.210319 0.55979,-0.618555 0.35941,-1.135301 -0.44023,-1.135301 -0.31689,0 -0.69138,-0.301862 -0.87531,-0.705555 -0.17681,-0.388056 -0.40771,-0.705556 -0.5131,-0.705556 -0.10539,0 -0.33628,0.3175 -0.51309,0.705556 -0.18394,0.403693 -0.55842,0.705555 -0.87531,0.705555 -0.79964,0 -1.00002,0.516746 -0.44024,1.135301 0.31307,0.345934 0.4245,0.774076 0.31501,1.210319 -0.2217,0.883321 0.006,1.072763 0.83623,0.694644 0.49026,-0.223376 0.86454,-0.223376 1.3548,0 z m 26.71484,-0.201755 c 0.7678,0.485798 1.13375,0.308932 0.94196,-0.455244 -0.13325,-0.530879 -0.0106,-0.90262 0.46495,-1.408768 l 0.64595,-0.687587 -0.91574,-0.183148 c -0.63479,-0.126958 -1.00251,-0.409078 -1.19857,-0.919564 l -0.28283,-0.73642 -0.61231,0.743125 c -0.33677,0.408717 -0.89807,0.830027 -1.24732,0.936238 -0.74071,0.225267 -0.80137,0.512335 -0.21166,1.001748 0.23283,0.193235 0.42333,0.783548 0.42333,1.311803 v 0.96047 l 0.7928,-0.409973 c 0.51299,-0.265275 0.93632,-0.319162 1.19944,-0.15268 z m 14.88138,-1.797405 c 0.39918,-0.442959 0.40565,-0.54588 0.0485,-0.77179 -0.22666,-0.143369 -0.56027,-0.262617 -0.74135,-0.264993 -0.18108,-0.0023 -0.58436,-0.353571 -0.89619,-0.780432 l -0.56695,-0.776111 -0.28118,0.73642 c -0.19514,0.511081 -0.56138,0.792457 -1.19691,0.919564 l -0.91574,0.183148 0.62605,0.666403 c 0.46502,0.49499 0.57813,0.857354 0.43974,1.408769 -0.19908,0.793171 0.0989,0.94442 0.95639,0.48549 0.31463,-0.168385 0.72143,-0.126772 1.18089,0.120802 0.67369,0.363005 0.70452,0.342832 0.79354,-0.519238 0.0509,-0.493302 0.29989,-1.126916 0.55322,-1.408032 z m -28.86806,1.740233 c 0.15522,0 0.56797,0.08751 0.91722,0.194471 0.55317,0.169409 0.635,0.09308 0.635,-0.592337 0,-0.432742 0.2172,-1.026806 0.48267,-1.320145 0.41638,-0.460098 0.42607,-0.569138 0.0705,-0.794012 -0.22666,-0.143369 -0.63436,-0.262617 -0.906,-0.264993 -0.27164,-0.0023 -0.49389,-0.107047 -0.49389,-0.232602 0,-0.125555 -0.17933,-0.473535 -0.39852,-0.773291 -0.38458,-0.525955 -0.41084,-0.517971 -0.75085,0.228281 -0.19379,0.425311 -0.5542,0.775236 -0.80093,0.777612 -0.24672,0.0023 -0.63738,0.123692 -0.86814,0.269593 -0.35632,0.225289 -0.3241,0.354194 0.21379,0.855314 0.47689,0.444294 0.58769,0.771948 0.44852,1.326422 -0.16915,0.673958 -0.12747,0.718972 0.49177,0.531032 0.37212,-0.11294 0.80359,-0.205345 0.95881,-0.205345 z m 40.35777,0 c 0.15523,0 0.58669,0.0924 0.95881,0.205345 0.61924,0.18794 0.66092,0.142926 0.49177,-0.531032 -0.13917,-0.554474 -0.0284,-0.882128 0.44852,-1.326422 0.53789,-0.50112 0.57011,-0.630025 0.21379,-0.855314 -0.23076,-0.145901 -0.64495,-0.267217 -0.92043,-0.269593 -0.28411,-0.0025 -0.62911,-0.340196 -0.79719,-0.780432 -0.2862,-0.749596 -0.31006,-0.757397 -0.69857,-0.228281 -0.22124,0.301306 -0.40225,0.650556 -0.40225,0.776111 0,0.125555 -0.22225,0.230226 -0.49389,0.232602 -0.27164,0.0023 -0.67934,0.121624 -0.906,0.264993 -0.35552,0.224874 -0.34583,0.333914 0.0705,0.794012 0.26547,0.293339 0.48267,0.887403 0.48267,1.320145 0,0.685419 0.0818,0.761746 0.635,0.592337 0.34925,-0.10696 0.762,-0.194471 0.91722,-0.194471 z"
         id="path4427" />
    </g>
  </g>
</svg>
